<svg width="1920" height="718" viewBox="0 0 1920 718" fill="none" xmlns="http://www.w3.org/2000/svg">
<rect opacity="0.4" width="1920" height="718" fill="#A6FF8B"/>
<g opacity="0.25">
<mask id="mask0_2019_5" style="mask-type:alpha" maskUnits="userSpaceOnUse" x="0" y="0" width="1920" height="718">
<rect opacity="0.4" width="1920" height="718" transform="matrix(1 0 0 -1 0 718)" fill="#EBF3FE"/>
</mask>
<g mask="url(#mask0_2019_5)">
<circle cx="388" cy="388" r="388" transform="matrix(1 0 0 -1 1608 556)" fill="#65C249"/>
<g style="mix-blend-mode:multiply">
<circle cx="295" cy="295" r="295" transform="matrix(1 0 0 -1 -69 1173)" fill="#65C249"/>
</g>
<g style="mix-blend-mode:multiply">
<circle cx="172.5" cy="172.5" r="172.5" transform="matrix(1 0 0 -1 937 119)" fill="#65C249"/>
</g>
<g style="mix-blend-mode:multiply">
<circle cx="57" cy="57" r="57" transform="matrix(1 0 0 -1 1725 592)" fill="#65C249"/>
</g>
<g style="mix-blend-mode:multiply">
<circle cx="25.5" cy="25.5" r="25.5" transform="matrix(1 0 0 -1 1666 426)" fill="#65C249"/>
</g>
<g style="mix-blend-mode:multiply">
<circle cx="83" cy="83" r="83" transform="matrix(1 0 0 -1 1322 813)" fill="#65C249"/>
</g>
<g style="mix-blend-mode:multiply">
<circle cx="31" cy="31" r="31" transform="matrix(1 0 0 -1 69 515)" fill="#A6FF8B"/>
</g>
<g style="mix-blend-mode:multiply">
<circle cx="181.5" cy="181.5" r="181.5" transform="matrix(1 0 0 -1 -122 167)" fill="#65C249"/>
</g>
</g>
</g>
</svg>
