<svg width="590" height="181" viewBox="0 0 590 181" fill="none" xmlns="http://www.w3.org/2000/svg">
<rect width="567" height="160" fill="#CFB8FF"/>
<path d="M126.243 48.9826V44.5455H147.148V48.9826H139.355V70H134.036V48.9826H126.243ZM148.509 70V50.9091H153.643V54.2401H153.841C154.189 53.0552 154.774 52.1603 155.594 51.5554C156.414 50.9422 157.359 50.6357 158.428 50.6357C158.693 50.6357 158.979 50.6522 159.285 50.6854C159.592 50.7185 159.861 50.7641 160.093 50.8221V55.5202C159.845 55.4457 159.501 55.3794 159.062 55.3214C158.622 55.2634 158.221 55.2344 157.856 55.2344C157.077 55.2344 156.381 55.4042 155.768 55.744C155.163 56.0754 154.682 56.5394 154.326 57.136C153.978 57.7326 153.804 58.4203 153.804 59.1992V70H148.509ZM167.728 70.3604C166.51 70.3604 165.424 70.1491 164.471 69.7266C163.518 69.2957 162.764 68.6618 162.209 67.8249C161.662 66.9798 161.389 65.9274 161.389 64.668C161.389 63.6074 161.584 62.7166 161.973 61.9957C162.363 61.2749 162.893 60.6948 163.564 60.2557C164.235 59.8165 164.997 59.4851 165.851 59.2614C166.713 59.0376 167.616 58.8802 168.56 58.7891C169.671 58.6731 170.566 58.5653 171.245 58.4659C171.925 58.3582 172.418 58.2008 172.724 57.9936C173.031 57.7865 173.184 57.4799 173.184 57.0739V56.9993C173.184 56.2121 172.935 55.6031 172.438 55.1722C171.949 54.7414 171.253 54.5259 170.35 54.5259C169.397 54.5259 168.639 54.7372 168.076 55.1598C167.512 55.5741 167.139 56.0961 166.957 56.7259L162.06 56.3281C162.309 55.1681 162.798 54.1655 163.527 53.3203C164.256 52.4669 165.196 51.8123 166.348 51.3565C167.508 50.8925 168.85 50.6605 170.375 50.6605C171.436 50.6605 172.451 50.7848 173.42 51.0334C174.398 51.282 175.264 51.6673 176.018 52.1893C176.78 52.7113 177.381 53.3825 177.82 54.2028C178.259 55.0148 178.479 55.9884 178.479 57.1236V70H173.457V67.3526H173.308C173.002 67.9492 172.592 68.4754 172.078 68.9311C171.564 69.3786 170.947 69.7307 170.226 69.9876C169.505 70.2362 168.672 70.3604 167.728 70.3604ZM169.244 66.7063C170.023 66.7063 170.711 66.553 171.307 66.2464C171.904 65.9316 172.372 65.509 172.712 64.9787C173.051 64.4484 173.221 63.8477 173.221 63.1765V61.1506C173.056 61.2583 172.828 61.3577 172.538 61.4489C172.256 61.5317 171.937 61.6104 171.581 61.685C171.224 61.7513 170.868 61.8134 170.512 61.8714C170.156 61.9212 169.832 61.9667 169.542 62.0082C168.921 62.0993 168.378 62.2443 167.914 62.4432C167.45 62.642 167.09 62.9113 166.833 63.2511C166.576 63.5825 166.448 63.9968 166.448 64.494C166.448 65.2148 166.709 65.7659 167.231 66.147C167.761 66.5199 168.432 66.7063 169.244 66.7063ZM187.881 58.9631V70H182.587V50.9091H187.633V54.2773H187.856C188.279 53.167 188.987 52.2887 189.982 51.6424C190.976 50.9878 192.182 50.6605 193.599 50.6605C194.924 50.6605 196.08 50.9505 197.066 51.5305C198.052 52.1106 198.819 52.9392 199.366 54.0163C199.913 55.0852 200.186 56.3613 200.186 57.8445V70H194.891V58.7891C194.9 57.6207 194.601 56.7093 193.996 56.0547C193.391 55.3918 192.559 55.0604 191.498 55.0604C190.786 55.0604 190.156 55.2137 189.609 55.5202C189.07 55.8268 188.648 56.2743 188.341 56.8626C188.043 57.4426 187.89 58.1428 187.881 58.9631ZM220.243 56.353L215.396 56.6513C215.313 56.237 215.135 55.8641 214.862 55.5327C214.588 55.1929 214.228 54.9237 213.78 54.7248C213.341 54.5176 212.815 54.4141 212.202 54.4141C211.381 54.4141 210.69 54.5881 210.126 54.9361C209.563 55.2758 209.281 55.7315 209.281 56.3033C209.281 56.759 209.463 57.1443 209.828 57.4592C210.192 57.774 210.818 58.0268 211.705 58.2173L215.16 58.9134C217.016 59.2945 218.4 59.9077 219.311 60.7528C220.223 61.598 220.678 62.7083 220.678 64.0838C220.678 65.335 220.31 66.4329 219.572 67.3775C218.843 68.3221 217.84 69.0595 216.564 69.5898C215.297 70.1119 213.834 70.3729 212.177 70.3729C209.65 70.3729 207.636 69.8467 206.136 68.7944C204.645 67.7338 203.771 66.292 203.514 64.4691L208.722 64.1957C208.879 64.9663 209.26 65.5546 209.865 65.9606C210.47 66.3583 211.245 66.5572 212.189 66.5572C213.117 66.5572 213.863 66.379 214.426 66.0227C214.998 65.6581 215.288 65.19 215.297 64.6183C215.288 64.1377 215.085 63.7441 214.688 63.4375C214.29 63.1226 213.677 62.8823 212.848 62.7166L209.542 62.0579C207.678 61.685 206.29 61.0387 205.378 60.119C204.475 59.1992 204.023 58.0268 204.023 56.6016C204.023 55.3752 204.355 54.3188 205.018 53.4322C205.689 52.5456 206.629 51.862 207.839 51.3814C209.057 50.9008 210.482 50.6605 212.115 50.6605C214.526 50.6605 216.423 51.1701 217.807 52.1893C219.199 53.2085 220.011 54.5964 220.243 56.353ZM234.279 50.9091V54.8864H222.496V50.9091H234.279ZM225.193 70V49.5295C225.193 48.1457 225.462 46.9981 226.001 46.0866C226.548 45.1752 227.294 44.4916 228.238 44.0359C229.183 43.5801 230.256 43.3523 231.457 43.3523C232.269 43.3523 233.011 43.4144 233.682 43.5387C234.362 43.663 234.867 43.7749 235.198 43.8743L234.254 47.8516C234.047 47.7853 233.79 47.7231 233.483 47.6651C233.185 47.6071 232.878 47.5781 232.563 47.5781C231.785 47.5781 231.242 47.7604 230.935 48.125C230.629 48.4813 230.475 48.9826 230.475 49.6289V70H225.193ZM245.455 70.3729C243.525 70.3729 241.855 69.9627 240.447 69.1424C239.046 68.3138 237.965 67.1621 237.203 65.6871C236.44 64.204 236.059 62.4846 236.059 60.5291C236.059 58.5571 236.44 56.8336 237.203 55.3587C237.965 53.8755 239.046 52.7237 240.447 51.9034C241.855 51.0748 243.525 50.6605 245.455 50.6605C247.386 50.6605 249.052 51.0748 250.452 51.9034C251.86 52.7237 252.946 53.8755 253.708 55.3587C254.471 56.8336 254.852 58.5571 254.852 60.5291C254.852 62.4846 254.471 64.204 253.708 65.6871C252.946 67.1621 251.86 68.3138 250.452 69.1424C249.052 69.9627 247.386 70.3729 245.455 70.3729ZM245.48 66.2713C246.359 66.2713 247.092 66.0227 247.68 65.5256C248.269 65.0201 248.712 64.3324 249.01 63.4624C249.317 62.5923 249.47 61.6022 249.47 60.4918C249.47 59.3815 249.317 58.3913 249.01 57.5213C248.712 56.6513 248.269 55.9635 247.68 55.4581C247.092 54.9527 246.359 54.6999 245.48 54.6999C244.594 54.6999 243.848 54.9527 243.243 55.4581C242.646 55.9635 242.195 56.6513 241.888 57.5213C241.59 58.3913 241.441 59.3815 241.441 60.4918C241.441 61.6022 241.59 62.5923 241.888 63.4624C242.195 64.3324 242.646 65.0201 243.243 65.5256C243.848 66.0227 244.594 66.2713 245.48 66.2713ZM258.295 70V50.9091H263.428V54.2401H263.627C263.975 53.0552 264.559 52.1603 265.379 51.5554C266.199 50.9422 267.144 50.6357 268.213 50.6357C268.478 50.6357 268.764 50.6522 269.07 50.6854C269.377 50.7185 269.646 50.7641 269.878 50.8221V55.5202C269.63 55.4457 269.286 55.3794 268.847 55.3214C268.408 55.2634 268.006 55.2344 267.641 55.2344C266.862 55.2344 266.166 55.4042 265.553 55.744C264.948 56.0754 264.468 56.5394 264.111 57.136C263.763 57.7326 263.589 58.4203 263.589 59.1992V70H258.295ZM272.616 70V50.9091H277.662V54.2773H277.886C278.283 53.1587 278.946 52.2763 279.874 51.63C280.802 50.9837 281.913 50.6605 283.205 50.6605C284.515 50.6605 285.629 50.9878 286.549 51.6424C287.468 52.2887 288.082 53.167 288.388 54.2773H288.587C288.977 53.1836 289.681 52.3094 290.7 51.6548C291.727 50.992 292.941 50.6605 294.342 50.6605C296.123 50.6605 297.569 51.2281 298.679 52.3633C299.798 53.4902 300.357 55.0894 300.357 57.1609V70H295.075V58.2049C295.075 57.1443 294.793 56.3488 294.23 55.8185C293.666 55.2882 292.962 55.0231 292.117 55.0231C291.156 55.0231 290.406 55.3297 289.867 55.9428C289.329 56.5477 289.059 57.3473 289.059 58.3416V70H283.926V58.093C283.926 57.1567 283.657 56.411 283.118 55.8558C282.588 55.3007 281.888 55.0231 281.018 55.0231C280.43 55.0231 279.899 55.1722 279.427 55.4705C278.963 55.7605 278.594 56.1707 278.321 56.701C278.047 57.223 277.911 57.8362 277.911 58.5405V70H272.616ZM309.984 70.3604C308.766 70.3604 307.68 70.1491 306.727 69.7266C305.774 69.2957 305.02 68.6618 304.465 67.8249C303.918 66.9798 303.645 65.9274 303.645 64.668C303.645 63.6074 303.84 62.7166 304.229 61.9957C304.618 61.2749 305.149 60.6948 305.82 60.2557C306.491 59.8165 307.253 59.4851 308.107 59.2614C308.969 59.0376 309.872 58.8802 310.816 58.7891C311.927 58.6731 312.822 58.5653 313.501 58.4659C314.18 58.3582 314.673 58.2008 314.98 57.9936C315.287 57.7865 315.44 57.4799 315.44 57.0739V56.9993C315.44 56.2121 315.191 55.6031 314.694 55.1722C314.205 54.7414 313.509 54.5259 312.606 54.5259C311.653 54.5259 310.895 54.7372 310.332 55.1598C309.768 55.5741 309.395 56.0961 309.213 56.7259L304.316 56.3281C304.565 55.1681 305.053 54.1655 305.783 53.3203C306.512 52.4669 307.452 51.8123 308.604 51.3565C309.764 50.8925 311.106 50.6605 312.631 50.6605C313.692 50.6605 314.707 50.7848 315.676 51.0334C316.654 51.282 317.52 51.6673 318.274 52.1893C319.036 52.7113 319.637 53.3825 320.076 54.2028C320.515 55.0148 320.735 55.9884 320.735 57.1236V70H315.713V67.3526H315.564C315.258 67.9492 314.847 68.4754 314.334 68.9311C313.82 69.3786 313.203 69.7307 312.482 69.9876C311.761 70.2362 310.928 70.3604 309.984 70.3604ZM311.5 66.7063C312.279 66.7063 312.967 66.553 313.563 66.2464C314.16 65.9316 314.628 65.509 314.968 64.9787C315.307 64.4484 315.477 63.8477 315.477 63.1765V61.1506C315.311 61.2583 315.084 61.3577 314.794 61.4489C314.512 61.5317 314.193 61.6104 313.837 61.685C313.48 61.7513 313.124 61.8134 312.768 61.8714C312.411 61.9212 312.088 61.9667 311.798 62.0082C311.177 62.0993 310.634 62.2443 310.17 62.4432C309.706 62.642 309.346 62.9113 309.089 63.2511C308.832 63.5825 308.703 63.9968 308.703 64.494C308.703 65.2148 308.964 65.7659 309.486 66.147C310.017 66.5199 310.688 66.7063 311.5 66.7063ZM324.842 70V50.9091H329.889V54.2773H330.112C330.51 53.1587 331.173 52.2763 332.101 51.63C333.029 50.9837 334.139 50.6605 335.432 50.6605C336.741 50.6605 337.856 50.9878 338.775 51.6424C339.695 52.2887 340.308 53.167 340.615 54.2773H340.814C341.203 53.1836 341.907 52.3094 342.927 51.6548C343.954 50.992 345.168 50.6605 346.568 50.6605C348.35 50.6605 349.796 51.2281 350.906 52.3633C352.025 53.4902 352.584 55.0894 352.584 57.1609V70H347.302V58.2049C347.302 57.1443 347.02 56.3488 346.456 55.8185C345.893 55.2882 345.189 55.0231 344.343 55.0231C343.382 55.0231 342.632 55.3297 342.094 55.9428C341.555 56.5477 341.286 57.3473 341.286 58.3416V70H336.153V58.093C336.153 57.1567 335.883 56.411 335.345 55.8558C334.815 55.3007 334.114 55.0231 333.244 55.0231C332.656 55.0231 332.126 55.1722 331.653 55.4705C331.189 55.7605 330.821 56.1707 330.547 56.701C330.274 57.223 330.137 57.8362 330.137 58.5405V70H324.842ZM365.392 70.3729C363.461 70.3729 361.792 69.9627 360.383 69.1424C358.983 68.3138 357.901 67.1621 357.139 65.6871C356.377 64.204 355.996 62.4846 355.996 60.5291C355.996 58.5571 356.377 56.8336 357.139 55.3587C357.901 53.8755 358.983 52.7237 360.383 51.9034C361.792 51.0748 363.461 50.6605 365.392 50.6605C367.323 50.6605 368.988 51.0748 370.388 51.9034C371.797 52.7237 372.882 53.8755 373.645 55.3587C374.407 56.8336 374.788 58.5571 374.788 60.5291C374.788 62.4846 374.407 64.204 373.645 65.6871C372.882 67.1621 371.797 68.3138 370.388 69.1424C368.988 69.9627 367.323 70.3729 365.392 70.3729ZM365.417 66.2713C366.295 66.2713 367.028 66.0227 367.617 65.5256C368.205 65.0201 368.648 64.3324 368.947 63.4624C369.253 62.5923 369.407 61.6022 369.407 60.4918C369.407 59.3815 369.253 58.3913 368.947 57.5213C368.648 56.6513 368.205 55.9635 367.617 55.4581C367.028 54.9527 366.295 54.6999 365.417 54.6999C364.53 54.6999 363.784 54.9527 363.18 55.4581C362.583 55.9635 362.131 56.6513 361.825 57.5213C361.527 58.3913 361.377 59.3815 361.377 60.4918C361.377 61.6022 361.527 62.5923 361.825 63.4624C362.131 64.3324 362.583 65.0201 363.18 65.5256C363.784 66.0227 364.53 66.2713 365.417 66.2713ZM394.115 56.353L389.268 56.6513C389.185 56.237 389.007 55.8641 388.734 55.5327C388.46 55.1929 388.1 54.9237 387.652 54.7248C387.213 54.5176 386.687 54.4141 386.074 54.4141C385.253 54.4141 384.562 54.5881 383.998 54.9361C383.435 55.2758 383.153 55.7315 383.153 56.3033C383.153 56.759 383.335 57.1443 383.7 57.4592C384.064 57.774 384.69 58.0268 385.577 58.2173L389.032 58.9134C390.888 59.2945 392.272 59.9077 393.183 60.7528C394.095 61.598 394.55 62.7083 394.55 64.0838C394.55 65.335 394.182 66.4329 393.444 67.3775C392.715 68.3221 391.712 69.0595 390.436 69.5898C389.169 70.1119 387.706 70.3729 386.049 70.3729C383.522 70.3729 381.508 69.8467 380.008 68.7944C378.517 67.7338 377.643 66.292 377.386 64.4691L382.594 64.1957C382.751 64.9663 383.132 65.5546 383.737 65.9606C384.342 66.3583 385.117 66.5572 386.061 66.5572C386.989 66.5572 387.735 66.379 388.299 66.0227C388.87 65.6581 389.16 65.19 389.169 64.6183C389.16 64.1377 388.957 63.7441 388.56 63.4375C388.162 63.1226 387.549 62.8823 386.72 62.7166L383.414 62.0579C381.55 61.685 380.162 61.0387 379.25 60.119C378.347 59.1992 377.896 58.0268 377.896 56.6016C377.896 55.3752 378.227 54.3188 378.89 53.4322C379.561 52.5456 380.501 51.862 381.711 51.3814C382.929 50.9008 384.354 50.6605 385.987 50.6605C388.398 50.6605 390.295 51.1701 391.679 52.1893C393.071 53.2085 393.883 54.5964 394.115 56.353ZM405.985 70V50.9091H411.28V70H405.985ZM408.645 48.4482C407.858 48.4482 407.182 48.1871 406.619 47.6651C406.064 47.1348 405.786 46.5009 405.786 45.7635C405.786 45.0343 406.064 44.4087 406.619 43.8867C407.182 43.3564 407.858 43.0913 408.645 43.0913C409.432 43.0913 410.103 43.3564 410.658 43.8867C411.222 44.4087 411.503 45.0343 411.503 45.7635C411.503 46.5009 411.222 47.1348 410.658 47.6651C410.103 48.1871 409.432 48.4482 408.645 48.4482ZM422.556 70.3107C421.106 70.3107 419.793 69.9379 418.616 69.1921C417.448 68.4381 416.52 67.3319 415.832 65.8736C415.152 64.407 414.813 62.6089 414.813 60.4794C414.813 58.2919 415.165 56.4731 415.869 55.0231C416.573 53.5647 417.51 52.4751 418.678 51.7543C419.855 51.0251 421.143 50.6605 422.544 50.6605C423.612 50.6605 424.503 50.8428 425.216 51.2074C425.937 51.5637 426.517 52.0111 426.956 52.5497C427.403 53.08 427.743 53.602 427.975 54.1158H428.137V44.5455H433.419V70H428.199V66.9425H427.975C427.726 67.4728 427.374 67.9989 426.919 68.521C426.471 69.0347 425.887 69.4614 425.166 69.8011C424.453 70.1409 423.583 70.3107 422.556 70.3107ZM424.234 66.0973C425.087 66.0973 425.808 65.8653 426.396 65.4013C426.993 64.929 427.449 64.2702 427.764 63.4251C428.087 62.5799 428.248 61.5897 428.248 60.4545C428.248 59.3194 428.091 58.3333 427.776 57.4964C427.461 56.6596 427.006 56.0133 426.409 55.5575C425.812 55.1018 425.087 54.8739 424.234 54.8739C423.364 54.8739 422.631 55.1101 422.034 55.5824C421.437 56.0547 420.986 56.7093 420.679 57.5462C420.373 58.383 420.219 59.3525 420.219 60.4545C420.219 61.5649 420.373 62.5468 420.679 63.4002C420.994 64.2454 421.446 64.9083 422.034 65.3888C422.631 65.8612 423.364 66.0973 424.234 66.0973ZM446.472 70.3729C444.509 70.3729 442.818 69.9751 441.401 69.1797C439.993 68.3759 438.907 67.2408 438.145 65.7741C437.383 64.2992 437.002 62.555 437.002 60.5415C437.002 58.5778 437.383 56.8543 438.145 55.3711C438.907 53.8879 439.98 52.732 441.364 51.9034C442.756 51.0748 444.388 50.6605 446.261 50.6605C447.521 50.6605 448.693 50.8635 449.778 51.2695C450.872 51.6673 451.825 52.268 452.637 53.0717C453.457 53.8755 454.095 54.8864 454.551 56.1044C455.007 57.3142 455.235 58.7311 455.235 60.3551V61.8093H439.114V58.5281H450.251C450.251 57.7657 450.085 57.0904 449.754 56.5021C449.422 55.9138 448.962 55.454 448.374 55.1225C447.794 54.7828 447.119 54.6129 446.348 54.6129C445.544 54.6129 444.832 54.7994 444.21 55.1722C443.597 55.5368 443.117 56.0298 442.769 56.6513C442.421 57.2644 442.242 57.948 442.234 58.7021V61.8217C442.234 62.7663 442.408 63.5825 442.756 64.2702C443.112 64.958 443.614 65.4883 444.26 65.8612C444.906 66.234 445.673 66.4205 446.559 66.4205C447.148 66.4205 447.686 66.3376 448.175 66.1719C448.664 66.0062 449.082 65.7576 449.43 65.4261C449.778 65.0947 450.044 64.6887 450.226 64.2081L455.123 64.5312C454.874 65.7079 454.365 66.7353 453.594 67.6136C452.832 68.4837 451.846 69.1631 450.636 69.652C449.435 70.1326 448.047 70.3729 446.472 70.3729ZM464.134 70.3604C462.916 70.3604 461.83 70.1491 460.878 69.7266C459.925 69.2957 459.171 68.6618 458.616 67.8249C458.069 66.9798 457.795 65.9274 457.795 64.668C457.795 63.6074 457.99 62.7166 458.379 61.9957C458.769 61.2749 459.299 60.6948 459.97 60.2557C460.641 59.8165 461.404 59.4851 462.257 59.2614C463.119 59.0376 464.022 58.8802 464.967 58.7891C466.077 58.6731 466.972 58.5653 467.651 58.4659C468.331 58.3582 468.824 58.2008 469.13 57.9936C469.437 57.7865 469.59 57.4799 469.59 57.0739V56.9993C469.59 56.2121 469.342 55.6031 468.845 55.1722C468.356 54.7414 467.66 54.5259 466.756 54.5259C465.804 54.5259 465.045 54.7372 464.482 55.1598C463.919 55.5741 463.546 56.0961 463.363 56.7259L458.466 56.3281C458.715 55.1681 459.204 54.1655 459.933 53.3203C460.662 52.4669 461.603 51.8123 462.754 51.3565C463.914 50.8925 465.257 50.6605 466.781 50.6605C467.842 50.6605 468.857 50.7848 469.826 51.0334C470.804 51.282 471.67 51.6673 472.424 52.1893C473.186 52.7113 473.787 53.3825 474.226 54.2028C474.665 55.0148 474.885 55.9884 474.885 57.1236V70H469.864V67.3526H469.715C469.408 67.9492 468.998 68.4754 468.484 68.9311C467.97 69.3786 467.353 69.7307 466.632 69.9876C465.911 70.2362 465.079 70.3604 464.134 70.3604ZM465.65 66.7063C466.429 66.7063 467.117 66.553 467.714 66.2464C468.31 65.9316 468.778 65.509 469.118 64.9787C469.458 64.4484 469.628 63.8477 469.628 63.1765V61.1506C469.462 61.2583 469.234 61.3577 468.944 61.4489C468.662 61.5317 468.343 61.6104 467.987 61.685C467.631 61.7513 467.274 61.8134 466.918 61.8714C466.562 61.9212 466.239 61.9667 465.949 62.0082C465.327 62.0993 464.784 62.2443 464.32 62.4432C463.856 62.642 463.496 62.9113 463.239 63.2511C462.982 63.5825 462.854 63.9968 462.854 64.494C462.854 65.2148 463.115 65.7659 463.637 66.147C464.167 66.5199 464.838 66.7063 465.65 66.7063ZM494.877 56.353L490.03 56.6513C489.947 56.237 489.769 55.8641 489.495 55.5327C489.222 55.1929 488.861 54.9237 488.414 54.7248C487.975 54.5176 487.449 54.4141 486.835 54.4141C486.015 54.4141 485.323 54.5881 484.76 54.9361C484.196 55.2758 483.915 55.7315 483.915 56.3033C483.915 56.759 484.097 57.1443 484.462 57.4592C484.826 57.774 485.452 58.0268 486.338 58.2173L489.794 58.9134C491.65 59.2945 493.033 59.9077 493.945 60.7528C494.856 61.598 495.312 62.7083 495.312 64.0838C495.312 65.335 494.943 66.4329 494.206 67.3775C493.477 68.3221 492.474 69.0595 491.198 69.5898C489.93 70.1119 488.468 70.3729 486.811 70.3729C484.283 70.3729 482.27 69.8467 480.77 68.7944C479.279 67.7338 478.405 66.292 478.148 64.4691L483.355 64.1957C483.513 64.9663 483.894 65.5546 484.499 65.9606C485.104 66.3583 485.878 66.5572 486.823 66.5572C487.751 66.5572 488.497 66.379 489.06 66.0227C489.632 65.6581 489.922 65.19 489.93 64.6183C489.922 64.1377 489.719 63.7441 489.321 63.4375C488.924 63.1226 488.31 62.8823 487.482 62.7166L484.176 62.0579C482.311 61.685 480.923 61.0387 480.012 60.119C479.109 59.1992 478.657 58.0268 478.657 56.6016C478.657 55.3752 478.989 54.3188 479.652 53.4322C480.323 52.5456 481.263 51.862 482.473 51.3814C483.691 50.9008 485.116 50.6605 486.748 50.6605C489.16 50.6605 491.057 51.1701 492.441 52.1893C493.833 53.2085 494.645 54.5964 494.877 56.353ZM135.813 112.373C133.849 112.373 132.159 111.975 130.742 111.18C129.334 110.376 128.248 109.241 127.486 107.774C126.723 106.299 126.342 104.555 126.342 102.542C126.342 100.578 126.723 98.8543 127.486 97.3711C128.248 95.8879 129.321 94.732 130.705 93.9034C132.097 93.0748 133.729 92.6605 135.602 92.6605C136.861 92.6605 138.034 92.8635 139.119 93.2695C140.213 93.6673 141.166 94.268 141.978 95.0717C142.798 95.8755 143.436 96.8864 143.892 98.1044C144.348 99.3142 144.576 100.731 144.576 102.355V103.809H128.455V100.528H139.592C139.592 99.7657 139.426 99.0904 139.094 98.5021C138.763 97.9138 138.303 97.454 137.715 97.1225C137.135 96.7828 136.46 96.6129 135.689 96.6129C134.885 96.6129 134.173 96.7994 133.551 97.1722C132.938 97.5368 132.457 98.0298 132.109 98.6513C131.761 99.2644 131.583 99.948 131.575 100.702V103.822C131.575 104.766 131.749 105.583 132.097 106.27C132.453 106.958 132.955 107.488 133.601 107.861C134.247 108.234 135.014 108.42 135.9 108.42C136.489 108.42 137.027 108.338 137.516 108.172C138.005 108.006 138.423 107.758 138.771 107.426C139.119 107.095 139.384 106.689 139.567 106.208L144.464 106.531C144.215 107.708 143.706 108.735 142.935 109.614C142.173 110.484 141.187 111.163 139.977 111.652C138.775 112.133 137.388 112.373 135.813 112.373ZM153.326 100.963V112H148.031V92.9091H153.077V96.2773H153.301C153.723 95.167 154.432 94.2887 155.426 93.6424C156.42 92.9878 157.626 92.6605 159.043 92.6605C160.369 92.6605 161.525 92.9505 162.511 93.5305C163.497 94.1106 164.263 94.9392 164.81 96.0163C165.357 97.0852 165.63 98.3613 165.63 99.8445V112H160.336V100.789C160.344 99.6207 160.046 98.7093 159.441 98.0547C158.836 97.3918 158.003 97.0604 156.942 97.0604C156.23 97.0604 155.6 97.2137 155.053 97.5202C154.515 97.8268 154.092 98.2743 153.786 98.8626C153.487 99.4426 153.334 100.143 153.326 100.963ZM193.788 98.353L188.941 98.6513C188.858 98.237 188.68 97.8641 188.406 97.5327C188.133 97.1929 187.773 96.9237 187.325 96.7248C186.886 96.5176 186.36 96.4141 185.747 96.4141C184.926 96.4141 184.234 96.5881 183.671 96.9361C183.108 97.2758 182.826 97.7315 182.826 98.3033C182.826 98.759 183.008 99.1443 183.373 99.4592C183.737 99.774 184.363 100.027 185.249 100.217L188.705 100.913C190.561 101.295 191.945 101.908 192.856 102.753C193.767 103.598 194.223 104.708 194.223 106.084C194.223 107.335 193.854 108.433 193.117 109.377C192.388 110.322 191.385 111.06 190.109 111.59C188.841 112.112 187.379 112.373 185.722 112.373C183.195 112.373 181.181 111.847 179.681 110.794C178.19 109.734 177.316 108.292 177.059 106.469L182.267 106.196C182.424 106.966 182.805 107.555 183.41 107.961C184.015 108.358 184.79 108.557 185.734 108.557C186.662 108.557 187.408 108.379 187.971 108.023C188.543 107.658 188.833 107.19 188.841 106.618C188.833 106.138 188.63 105.744 188.232 105.438C187.835 105.123 187.222 104.882 186.393 104.717L183.087 104.058C181.222 103.685 179.835 103.039 178.923 102.119C178.02 101.199 177.568 100.027 177.568 98.6016C177.568 97.3752 177.9 96.3188 178.563 95.4322C179.234 94.5456 180.174 93.862 181.384 93.3814C182.602 92.9008 184.027 92.6605 185.66 92.6605C188.071 92.6605 189.968 93.1701 191.352 94.1893C192.744 95.2085 193.556 96.5964 193.788 98.353ZM206.183 112.373C204.252 112.373 202.583 111.963 201.174 111.142C199.774 110.314 198.692 109.162 197.93 107.687C197.168 106.204 196.787 104.485 196.787 102.529C196.787 100.557 197.168 98.8336 197.93 97.3587C198.692 95.8755 199.774 94.7237 201.174 93.9034C202.583 93.0748 204.252 92.6605 206.183 92.6605C208.114 92.6605 209.779 93.0748 211.179 93.9034C212.588 94.7237 213.674 95.8755 214.436 97.3587C215.198 98.8336 215.579 100.557 215.579 102.529C215.579 104.485 215.198 106.204 214.436 107.687C213.674 109.162 212.588 110.314 211.179 111.142C209.779 111.963 208.114 112.373 206.183 112.373ZM206.208 108.271C207.086 108.271 207.819 108.023 208.408 107.526C208.996 107.02 209.439 106.332 209.738 105.462C210.044 104.592 210.198 103.602 210.198 102.492C210.198 101.382 210.044 100.391 209.738 99.5213C209.439 98.6513 208.996 97.9635 208.408 97.4581C207.819 96.9527 207.086 96.6999 206.208 96.6999C205.321 96.6999 204.575 96.9527 203.971 97.4581C203.374 97.9635 202.922 98.6513 202.616 99.5213C202.318 100.391 202.168 101.382 202.168 102.492C202.168 103.602 202.318 104.592 202.616 105.462C202.922 106.332 203.374 107.02 203.971 107.526C204.575 108.023 205.321 108.271 206.208 108.271ZM224.317 86.5455V112H219.022V86.5455H224.317ZM240.801 103.871V92.9091H246.096V112H241.012V108.532H240.813C240.382 109.651 239.666 110.55 238.663 111.229C237.669 111.909 236.455 112.249 235.021 112.249C233.745 112.249 232.623 111.959 231.653 111.379C230.684 110.799 229.925 109.974 229.379 108.905C228.84 107.836 228.567 106.556 228.558 105.065V92.9091H233.853V104.12C233.861 105.247 234.164 106.138 234.76 106.792C235.357 107.447 236.156 107.774 237.159 107.774C237.797 107.774 238.394 107.629 238.949 107.339C239.504 107.041 239.951 106.602 240.291 106.022C240.639 105.442 240.809 104.725 240.801 103.871ZM258.956 112.373C257.001 112.373 255.319 111.959 253.91 111.13C252.51 110.293 251.433 109.133 250.679 107.65C249.933 106.167 249.56 104.46 249.56 102.529C249.56 100.574 249.937 98.8584 250.691 97.3835C251.453 95.9003 252.535 94.7444 253.935 93.9158C255.335 93.079 257.001 92.6605 258.932 92.6605C260.597 92.6605 262.055 92.9629 263.307 93.5678C264.558 94.1727 265.548 95.022 266.277 96.1158C267.006 97.2095 267.408 98.4938 267.483 99.9688H262.486C262.345 99.0159 261.973 98.2494 261.368 97.6694C260.771 97.0811 259.988 96.7869 259.019 96.7869C258.198 96.7869 257.482 97.0107 256.868 97.4581C256.263 97.8973 255.791 98.5394 255.451 99.3846C255.112 100.23 254.942 101.253 254.942 102.455C254.942 103.673 255.108 104.708 255.439 105.562C255.779 106.415 256.255 107.066 256.868 107.513C257.482 107.961 258.198 108.184 259.019 108.184C259.623 108.184 260.166 108.06 260.647 107.811C261.136 107.563 261.537 107.202 261.852 106.73C262.176 106.25 262.387 105.674 262.486 105.002H267.483C267.4 106.461 267.002 107.745 266.29 108.855C265.585 109.958 264.612 110.819 263.369 111.441C262.126 112.062 260.655 112.373 258.956 112.373ZM270.873 112V92.9091H276.167V112H270.873ZM273.532 90.4482C272.745 90.4482 272.07 90.1871 271.507 89.6651C270.951 89.1348 270.674 88.5009 270.674 87.7635C270.674 87.0343 270.951 86.4087 271.507 85.8867C272.07 85.3564 272.745 85.0913 273.532 85.0913C274.32 85.0913 274.991 85.3564 275.546 85.8867C276.109 86.4087 276.391 87.0343 276.391 87.7635C276.391 88.5009 276.109 89.1348 275.546 89.6651C274.991 90.1871 274.32 90.4482 273.532 90.4482ZM289.035 112.373C287.104 112.373 285.434 111.963 284.026 111.142C282.625 110.314 281.544 109.162 280.782 107.687C280.019 106.204 279.638 104.485 279.638 102.529C279.638 100.557 280.019 98.8336 280.782 97.3587C281.544 95.8755 282.625 94.7237 284.026 93.9034C285.434 93.0748 287.104 92.6605 289.035 92.6605C290.965 92.6605 292.631 93.0748 294.031 93.9034C295.44 94.7237 296.525 95.8755 297.287 97.3587C298.05 98.8336 298.431 100.557 298.431 102.529C298.431 104.485 298.05 106.204 297.287 107.687C296.525 109.162 295.44 110.314 294.031 111.142C292.631 111.963 290.965 112.373 289.035 112.373ZM289.059 108.271C289.938 108.271 290.671 108.023 291.259 107.526C291.848 107.02 292.291 106.332 292.589 105.462C292.896 104.592 293.049 103.602 293.049 102.492C293.049 101.382 292.896 100.391 292.589 99.5213C292.291 98.6513 291.848 97.9635 291.259 97.4581C290.671 96.9527 289.938 96.6999 289.059 96.6999C288.173 96.6999 287.427 96.9527 286.822 97.4581C286.226 97.9635 285.774 98.6513 285.467 99.5213C285.169 100.391 285.02 101.382 285.02 102.492C285.02 103.602 285.169 104.592 285.467 105.462C285.774 106.332 286.226 107.02 286.822 107.526C287.427 108.023 288.173 108.271 289.059 108.271ZM307.168 100.963V112H301.874V92.9091H306.92V96.2773H307.144C307.566 95.167 308.275 94.2887 309.269 93.6424C310.263 92.9878 311.469 92.6605 312.886 92.6605C314.211 92.6605 315.367 92.9505 316.353 93.5305C317.339 94.1106 318.106 94.9392 318.653 96.0163C319.2 97.0852 319.473 98.3613 319.473 99.8445V112H314.178V100.789C314.187 99.6207 313.888 98.7093 313.283 98.0547C312.679 97.3918 311.846 97.0604 310.785 97.0604C310.073 97.0604 309.443 97.2137 308.896 97.5202C308.357 97.8268 307.935 98.2743 307.628 98.8626C307.33 99.4426 307.177 100.143 307.168 100.963ZM332.346 112.373C330.383 112.373 328.692 111.975 327.275 111.18C325.867 110.376 324.781 109.241 324.019 107.774C323.257 106.299 322.876 104.555 322.876 102.542C322.876 100.578 323.257 98.8543 324.019 97.3711C324.781 95.8879 325.854 94.732 327.238 93.9034C328.63 93.0748 330.262 92.6605 332.135 92.6605C333.395 92.6605 334.567 92.8635 335.653 93.2695C336.746 93.6673 337.699 94.268 338.511 95.0717C339.331 95.8755 339.97 96.8864 340.425 98.1044C340.881 99.3142 341.109 100.731 341.109 102.355V103.809H324.988V100.528H336.125C336.125 99.7657 335.959 99.0904 335.628 98.5021C335.296 97.9138 334.836 97.454 334.248 97.1225C333.668 96.7828 332.993 96.6129 332.222 96.6129C331.418 96.6129 330.706 96.7994 330.084 97.1722C329.471 97.5368 328.991 98.0298 328.643 98.6513C328.295 99.2644 328.116 99.948 328.108 100.702V103.822C328.108 104.766 328.282 105.583 328.63 106.27C328.986 106.958 329.488 107.488 330.134 107.861C330.78 108.234 331.547 108.42 332.433 108.42C333.022 108.42 333.56 108.338 334.049 108.172C334.538 108.006 334.956 107.758 335.305 107.426C335.653 107.095 335.918 106.689 336.1 106.208L340.997 106.531C340.748 107.708 340.239 108.735 339.468 109.614C338.706 110.484 337.72 111.163 336.51 111.652C335.309 112.133 333.921 112.373 332.346 112.373ZM360.448 98.353L355.601 98.6513C355.518 98.237 355.34 97.8641 355.067 97.5327C354.793 97.1929 354.433 96.9237 353.985 96.7248C353.546 96.5176 353.02 96.4141 352.407 96.4141C351.586 96.4141 350.895 96.5881 350.331 96.9361C349.768 97.2758 349.486 97.7315 349.486 98.3033C349.486 98.759 349.668 99.1443 350.033 99.4592C350.397 99.774 351.023 100.027 351.91 100.217L355.365 100.913C357.221 101.295 358.605 101.908 359.516 102.753C360.428 103.598 360.883 104.708 360.883 106.084C360.883 107.335 360.515 108.433 359.777 109.377C359.048 110.322 358.045 111.06 356.769 111.59C355.502 112.112 354.039 112.373 352.382 112.373C349.855 112.373 347.841 111.847 346.341 110.794C344.85 109.734 343.976 108.292 343.719 106.469L348.927 106.196C349.084 106.966 349.465 107.555 350.07 107.961C350.675 108.358 351.45 108.557 352.394 108.557C353.322 108.557 354.068 108.379 354.632 108.023C355.203 107.658 355.493 107.19 355.502 106.618C355.493 106.138 355.29 105.744 354.893 105.438C354.495 105.123 353.882 104.882 353.053 104.717L349.747 104.058C347.883 103.685 346.495 103.039 345.583 102.119C344.68 101.199 344.229 100.027 344.229 98.6016C344.229 97.3752 344.56 96.3188 345.223 95.4322C345.894 94.5456 346.834 93.862 348.044 93.3814C349.262 92.9008 350.687 92.6605 352.32 92.6605C354.731 92.6605 356.628 93.1701 358.012 94.1893C359.404 95.2085 360.216 96.5964 360.448 98.353ZM379.353 112.311C377.903 112.311 376.589 111.938 375.413 111.192C374.244 110.438 373.316 109.332 372.629 107.874C371.949 106.407 371.61 104.609 371.61 102.479C371.61 100.292 371.962 98.4731 372.666 97.0231C373.37 95.5647 374.307 94.4751 375.475 93.7543C376.652 93.0251 377.94 92.6605 379.34 92.6605C380.409 92.6605 381.3 92.8428 382.013 93.2074C382.733 93.5637 383.314 94.0111 383.753 94.5497C384.2 95.08 384.54 95.602 384.772 96.1158H384.933V86.5455H390.216V112H384.996V108.942H384.772C384.523 109.473 384.171 109.999 383.715 110.521C383.268 111.035 382.684 111.461 381.963 111.801C381.25 112.141 380.38 112.311 379.353 112.311ZM381.031 108.097C381.884 108.097 382.605 107.865 383.193 107.401C383.79 106.929 384.246 106.27 384.561 105.425C384.884 104.58 385.045 103.59 385.045 102.455C385.045 101.319 384.888 100.333 384.573 99.4964C384.258 98.6596 383.802 98.0133 383.206 97.5575C382.609 97.1018 381.884 96.8739 381.031 96.8739C380.161 96.8739 379.427 97.1101 378.831 97.5824C378.234 98.0547 377.783 98.7093 377.476 99.5462C377.169 100.383 377.016 101.353 377.016 102.455C377.016 103.565 377.169 104.547 377.476 105.4C377.791 106.245 378.242 106.908 378.831 107.389C379.427 107.861 380.161 108.097 381.031 108.097ZM394.569 112V92.9091H399.864V112H394.569ZM397.229 90.4482C396.442 90.4482 395.766 90.1871 395.203 89.6651C394.648 89.1348 394.37 88.5009 394.37 87.7635C394.37 87.0343 394.648 86.4087 395.203 85.8867C395.766 85.3564 396.442 85.0913 397.229 85.0913C398.016 85.0913 398.687 85.3564 399.242 85.8867C399.806 86.4087 400.087 87.0343 400.087 87.7635C400.087 88.5009 399.806 89.1348 399.242 89.6651C398.687 90.1871 398.016 90.4482 397.229 90.4482ZM412.706 119.557C410.991 119.557 409.52 119.321 408.294 118.848C407.076 118.384 406.106 117.75 405.385 116.947C404.664 116.143 404.196 115.24 403.981 114.237L408.878 113.578C409.027 113.96 409.263 114.316 409.586 114.647C409.909 114.979 410.336 115.244 410.866 115.443C411.405 115.65 412.06 115.754 412.83 115.754C413.982 115.754 414.931 115.472 415.676 114.908C416.431 114.353 416.808 113.421 416.808 112.112V108.619H416.584C416.352 109.15 416.004 109.651 415.54 110.123C415.076 110.596 414.479 110.981 413.75 111.279C413.021 111.577 412.151 111.727 411.14 111.727C409.706 111.727 408.401 111.395 407.225 110.732C406.056 110.061 405.124 109.038 404.428 107.662C403.741 106.279 403.397 104.53 403.397 102.417C403.397 100.255 403.749 98.4483 404.453 96.9982C405.157 95.5482 406.094 94.4627 407.262 93.7418C408.439 93.021 409.727 92.6605 411.127 92.6605C412.196 92.6605 413.091 92.8428 413.812 93.2074C414.533 93.5637 415.113 94.0111 415.552 94.5497C416 95.08 416.344 95.602 416.584 96.1158H416.783V92.9091H422.04V112.186C422.04 113.81 421.642 115.169 420.847 116.263C420.051 117.357 418.949 118.177 417.541 118.724C416.141 119.279 414.529 119.557 412.706 119.557ZM412.818 107.749C413.671 107.749 414.392 107.538 414.98 107.115C415.577 106.685 416.033 106.071 416.348 105.276C416.671 104.472 416.832 103.511 416.832 102.392C416.832 101.274 416.675 100.304 416.36 99.484C416.045 98.6554 415.589 98.0133 414.993 97.5575C414.396 97.1018 413.671 96.8739 412.818 96.8739C411.948 96.8739 411.214 97.1101 410.618 97.5824C410.021 98.0464 409.57 98.6927 409.263 99.5213C408.957 100.35 408.803 101.307 408.803 102.392C408.803 103.494 408.957 104.447 409.263 105.251C409.578 106.047 410.03 106.664 410.618 107.103C411.214 107.534 411.948 107.749 412.818 107.749ZM426.254 112V92.9091H431.548V112H426.254ZM428.913 90.4482C428.126 90.4482 427.451 90.1871 426.887 89.6651C426.332 89.1348 426.055 88.5009 426.055 87.7635C426.055 87.0343 426.332 86.4087 426.887 85.8867C427.451 85.3564 428.126 85.0913 428.913 85.0913C429.701 85.0913 430.372 85.3564 430.927 85.8867C431.49 86.4087 431.772 87.0343 431.772 87.7635C431.772 88.5009 431.49 89.1348 430.927 89.6651C430.372 90.1871 429.701 90.4482 428.913 90.4482ZM445.944 92.9091V96.8864H434.447V92.9091H445.944ZM437.057 88.3352H442.352V106.134C442.352 106.622 442.427 107.004 442.576 107.277C442.725 107.542 442.932 107.729 443.197 107.836C443.471 107.944 443.786 107.998 444.142 107.998C444.391 107.998 444.639 107.977 444.888 107.936C445.136 107.886 445.327 107.849 445.459 107.824L446.292 111.764C446.027 111.847 445.654 111.942 445.174 112.05C444.693 112.166 444.109 112.236 443.421 112.261C442.145 112.311 441.026 112.141 440.065 111.751C439.112 111.362 438.371 110.757 437.84 109.937C437.31 109.116 437.049 108.081 437.057 106.83V88.3352ZM454.837 112.36C453.619 112.36 452.534 112.149 451.581 111.727C450.628 111.296 449.874 110.662 449.319 109.825C448.772 108.98 448.498 107.927 448.498 106.668C448.498 105.607 448.693 104.717 449.082 103.996C449.472 103.275 450.002 102.695 450.673 102.256C451.345 101.817 452.107 101.485 452.96 101.261C453.822 101.038 454.725 100.88 455.67 100.789C456.78 100.673 457.675 100.565 458.354 100.466C459.034 100.358 459.527 100.201 459.834 99.9936C460.14 99.7865 460.293 99.4799 460.293 99.0739V98.9993C460.293 98.2121 460.045 97.6031 459.548 97.1722C459.059 96.7414 458.363 96.5259 457.46 96.5259C456.507 96.5259 455.749 96.7372 455.185 97.1598C454.622 97.5741 454.249 98.0961 454.066 98.7259L449.169 98.3281C449.418 97.1681 449.907 96.1655 450.636 95.3203C451.365 94.4669 452.306 93.8123 453.457 93.3565C454.618 92.8925 455.96 92.6605 457.484 92.6605C458.545 92.6605 459.56 92.7848 460.53 93.0334C461.507 93.282 462.373 93.6673 463.127 94.1893C463.89 94.7113 464.49 95.3825 464.929 96.2028C465.369 97.0148 465.588 97.9884 465.588 99.1236V112H460.567V109.353H460.418C460.111 109.949 459.701 110.475 459.187 110.931C458.674 111.379 458.056 111.731 457.335 111.988C456.614 112.236 455.782 112.36 454.837 112.36ZM456.353 108.706C457.132 108.706 457.82 108.553 458.417 108.246C459.013 107.932 459.481 107.509 459.821 106.979C460.161 106.448 460.331 105.848 460.331 105.176V103.151C460.165 103.258 459.937 103.358 459.647 103.449C459.365 103.532 459.046 103.61 458.69 103.685C458.334 103.751 457.977 103.813 457.621 103.871C457.265 103.921 456.942 103.967 456.652 104.008C456.03 104.099 455.488 104.244 455.024 104.443C454.56 104.642 454.199 104.911 453.942 105.251C453.685 105.583 453.557 105.997 453.557 106.494C453.557 107.215 453.818 107.766 454.34 108.147C454.87 108.52 455.541 108.706 456.353 108.706ZM474.991 86.5455V112H469.696V86.5455H474.991ZM487.932 112.373C485.969 112.373 484.278 111.975 482.861 111.18C481.453 110.376 480.367 109.241 479.605 107.774C478.843 106.299 478.461 104.555 478.461 102.542C478.461 100.578 478.843 98.8543 479.605 97.3711C480.367 95.8879 481.44 94.732 482.824 93.9034C484.216 93.0748 485.848 92.6605 487.721 92.6605C488.981 92.6605 490.153 92.8635 491.238 93.2695C492.332 93.6673 493.285 94.268 494.097 95.0717C494.917 95.8755 495.555 96.8864 496.011 98.1044C496.467 99.3142 496.695 100.731 496.695 102.355V103.809H480.574V100.528H491.711C491.711 99.7657 491.545 99.0904 491.214 98.5021C490.882 97.9138 490.422 97.454 489.834 97.1225C489.254 96.7828 488.579 96.6129 487.808 96.6129C487.004 96.6129 486.292 96.7994 485.67 97.1722C485.057 97.5368 484.577 98.0298 484.229 98.6513C483.881 99.2644 483.702 99.948 483.694 100.702V103.822C483.694 104.766 483.868 105.583 484.216 106.27C484.572 106.958 485.074 107.488 485.72 107.861C486.366 108.234 487.133 108.42 488.019 108.42C488.608 108.42 489.146 108.338 489.635 108.172C490.124 108.006 490.542 107.758 490.89 107.426C491.238 107.095 491.504 106.689 491.686 106.208L496.583 106.531C496.334 107.708 495.825 108.735 495.054 109.614C494.292 110.484 493.306 111.163 492.096 111.652C490.895 112.133 489.507 112.373 487.932 112.373ZM516.034 98.353L511.187 98.6513C511.104 98.237 510.926 97.8641 510.653 97.5327C510.379 97.1929 510.019 96.9237 509.571 96.7248C509.132 96.5176 508.606 96.4141 507.993 96.4141C507.172 96.4141 506.481 96.5881 505.917 96.9361C505.354 97.2758 505.072 97.7315 505.072 98.3033C505.072 98.759 505.254 99.1443 505.619 99.4592C505.983 99.774 506.609 100.027 507.496 100.217L510.951 100.913C512.807 101.295 514.191 101.908 515.102 102.753C516.014 103.598 516.469 104.708 516.469 106.084C516.469 107.335 516.101 108.433 515.363 109.377C514.634 110.322 513.631 111.06 512.355 111.59C511.088 112.112 509.625 112.373 507.968 112.373C505.441 112.373 503.427 111.847 501.927 110.794C500.436 109.734 499.562 108.292 499.305 106.469L504.513 106.196C504.67 106.966 505.051 107.555 505.656 107.961C506.261 108.358 507.036 108.557 507.98 108.557C508.908 108.557 509.654 108.379 510.218 108.023C510.789 107.658 511.079 107.19 511.088 106.618C511.079 106.138 510.876 105.744 510.479 105.438C510.081 105.123 509.468 104.882 508.639 104.717L505.333 104.058C503.469 103.685 502.081 103.039 501.169 102.119C500.266 101.199 499.814 100.027 499.814 98.6016C499.814 97.3752 500.146 96.3188 500.809 95.4322C501.48 94.5456 502.42 93.862 503.63 93.3814C504.848 92.9008 506.273 92.6605 507.906 92.6605C510.317 92.6605 512.214 93.1701 513.598 94.1893C514.99 95.2085 515.802 96.5964 516.034 98.353Z" fill="black"/>
<g style="mix-blend-mode:multiply" opacity="0.8">
<rect width="97.9587" height="25.5928" transform="matrix(0.782004 -0.623274 -0.623274 -0.782004 512.951 180.069)" fill="#C7C7C7"/>
</g>
<g clip-path="url(#clip0_2005_6)">
<mask id="mask0_2005_6" style="mask-type:luminance" maskUnits="userSpaceOnUse" x="33" y="41" width="74" height="74">
<path d="M106.667 41H33V114.667H106.667V41Z" fill="white"/>
</mask>
<g mask="url(#mask0_2005_6)">
<mask id="mask1_2005_6" style="mask-type:luminance" maskUnits="userSpaceOnUse" x="33" y="41" width="74" height="74">
<path d="M33 41H106.667V114.667H33V41Z" fill="white"/>
</mask>
<g mask="url(#mask1_2005_6)">
<path d="M69.833 101.779V112.449" stroke="black" stroke-width="2.87761" stroke-miterlimit="22.926" stroke-linecap="round" stroke-linejoin="round"/>
<path d="M52.5674 113.228H87.0986V104.595H52.5674V113.228Z" stroke="black" stroke-width="2.87761" stroke-miterlimit="22.926" stroke-linecap="round" stroke-linejoin="round"/>
<path d="M50.8244 90.0799C49.2508 87.5405 47.6501 84.2377 46.3722 81.0081C45.8849 79.7765 45.6941 78.447 46.7373 77.5702C47.7805 76.6934 49.3232 76.8055 50.1656 77.8194C50.9729 78.791 55.7523 84.7986 56.5595 85.7702C61.0139 91.1315 68.9581 92.6406 69.833 101.779C70.7081 92.6406 78.6523 91.1315 83.1067 85.7702C83.9138 84.7986 88.6933 78.791 89.5006 77.8194C90.343 76.8055 91.8858 76.6934 92.9289 77.5702C93.9722 78.447 93.7814 79.7765 93.294 81.0081C92.016 84.2377 90.4154 87.5405 88.8417 90.0799M93.534 78.3971L100.275 67.3639C102.384 64.0493 106.337 66.5933 104.933 69.5856C103.95 71.6243 100.056 81.3242 97.1311 87.7582C95.0271 92.3861 94.1778 93.5727 90.4641 96.9484L84.8184 102.08V103.789M46.1323 78.3971L39.3908 67.3639C37.2823 64.0493 33.3296 66.5933 34.7331 69.5856C35.7157 71.6243 39.6102 81.3242 42.5352 87.7582C44.6391 92.3861 45.4882 93.5727 49.2022 96.9484L54.8479 102.08V103.789" stroke="black" stroke-width="2.87761" stroke-miterlimit="22.926" stroke-linecap="round" stroke-linejoin="round"/>
<path d="M63.1555 71.8197C63.1555 69.3319 62.7985 68.5948 59.2059 63.8827C57.4943 61.6377 56.478 58.8344 56.478 55.7935C56.478 48.4179 62.4573 42.4385 69.833 42.4385C77.2089 42.4385 83.1881 48.4179 83.1881 55.7935C83.1881 58.8344 82.1717 61.6377 80.4601 63.8827C76.8677 68.5948 76.5105 69.3319 76.5105 71.8197" stroke="black" stroke-width="2.87761" stroke-miterlimit="22.926" stroke-linecap="round" stroke-linejoin="round"/>
<path d="M69.833 72.0098V58.4645" stroke="black" stroke-width="2.87761" stroke-miterlimit="22.926" stroke-linecap="round" stroke-linejoin="round"/>
<path d="M72.5041 55.7935L69.8331 58.4645L67.1621 55.7935" stroke="black" stroke-width="2.87761" stroke-miterlimit="22.926" stroke-linecap="round" stroke-linejoin="round"/>
<path d="M62.3208 72.9564H77.3453V80.4686H62.3208V72.9564Z" stroke="black" stroke-width="2.87761" stroke-miterlimit="22.926" stroke-linecap="round" stroke-linejoin="round"/>
<path d="M50.0032 55.7935H45.9917" stroke="black" stroke-width="2.87761" stroke-miterlimit="22.926" stroke-linecap="round" stroke-linejoin="round"/>
<path d="M52.6587 65.7035L49.1846 67.7092" stroke="black" stroke-width="2.87761" stroke-miterlimit="22.926" stroke-linecap="round" stroke-linejoin="round"/>
<path d="M86.9878 65.7035L90.4619 67.7092" stroke="black" stroke-width="2.87761" stroke-miterlimit="22.926" stroke-linecap="round" stroke-linejoin="round"/>
<path d="M89.6431 55.7935H93.6546" stroke="black" stroke-width="2.87761" stroke-miterlimit="22.926" stroke-linecap="round" stroke-linejoin="round"/>
<path d="M86.9878 45.8836L90.4619 43.8779" stroke="black" stroke-width="2.87761" stroke-miterlimit="22.926" stroke-linecap="round" stroke-linejoin="round"/>
<path d="M52.6587 45.8836L49.1846 43.8778" stroke="black" stroke-width="2.87761" stroke-miterlimit="22.926" stroke-linecap="round" stroke-linejoin="round"/>
</g>
</g>
</g>
<defs>
<clipPath id="clip0_2005_6">
<rect width="73.6667" height="73.6667" fill="white" transform="translate(33 41)"/>
</clipPath>
</defs>
</svg>
