<svg width="48" height="48" viewBox="0 0 48 48" fill="none" xmlns="http://www.w3.org/2000/svg">
<path d="M7.5001 8.25V28.341L4.5646 34.9455C4.51386 35.0597 4.49247 35.1848 4.50235 35.3093C4.51223 35.4339 4.55308 35.554 4.62119 35.6588C4.68929 35.7635 4.78249 35.8496 4.89233 35.9092C5.00216 35.9688 5.12514 36 5.2501 36H8.23509V41.25C8.23488 42.0782 8.44204 42.8933 8.83768 43.6209C9.23331 44.3485 9.80483 44.9655 10.5001 45.4155V47.25H12.0001V45C12.0002 44.8682 11.9656 44.7387 11.8998 44.6246C11.834 44.5104 11.7392 44.4156 11.6251 44.3498C11.0596 44.0518 10.5852 43.6064 10.2525 43.0606C9.91971 42.5149 9.74092 41.8892 9.7351 41.25V35.25C9.7351 35.1505 9.7746 35.0552 9.84493 34.9848C9.91526 34.9145 10.0106 34.875 10.1101 34.875C10.2096 34.875 10.3049 34.9145 10.3753 34.9848C10.4456 35.0552 10.4851 35.1505 10.4851 35.25V37.5H11.9851V33.75C11.9851 33.6505 12.0246 33.5552 12.0949 33.4848C12.1653 33.4145 12.2606 33.375 12.3601 33.375C12.4596 33.375 12.5549 33.4145 12.6253 33.4848C12.6956 33.5552 12.7351 33.6505 12.7351 33.75V37.5H14.2351V32.25C14.2351 32.1505 14.2746 32.0552 14.3449 31.9848C14.4153 31.9145 14.5106 31.875 14.6101 31.875C14.7096 31.875 14.8049 31.9145 14.8753 31.9848C14.9456 32.0552 14.9851 32.1505 14.9851 32.25V37.5H16.4851V33.741C16.4857 33.6918 16.496 33.6431 16.5154 33.5978C16.5348 33.5526 16.5629 33.5116 16.5981 33.4772C16.6334 33.4427 16.675 33.4156 16.7207 33.3973C16.7665 33.379 16.8154 33.3699 16.8646 33.3705C16.9138 33.3711 16.9625 33.3814 17.0078 33.4008C17.053 33.4202 17.094 33.4483 17.1284 33.4835C17.1628 33.5188 17.19 33.5604 17.2083 33.6062C17.2266 33.6519 17.2357 33.7008 17.2351 33.75V39.75C17.235 39.8931 17.2758 40.0332 17.3528 40.1538C17.4297 40.2744 17.5396 40.3706 17.6693 40.4308C17.7991 40.491 17.9434 40.5129 18.0852 40.4938C18.227 40.4747 18.3604 40.4154 18.4696 40.323L19.6073 39.36C19.6541 39.3205 19.6959 39.2754 19.7318 39.2257C19.7852 39.1505 19.8558 39.0891 19.9377 39.0469C20.0197 39.0046 20.1106 38.9826 20.2028 38.9827C20.3261 38.9787 20.4473 39.0148 20.5483 39.0855C20.6494 39.1562 20.7247 39.2578 20.7631 39.375C20.8081 39.5057 20.8081 39.6478 20.7631 39.7785L18.7216 43.32C18.5886 43.5977 18.38 43.8323 18.1197 43.9968C17.8594 44.1613 17.558 44.249 17.2501 44.25C17.0512 44.25 16.8604 44.329 16.7198 44.4697C16.5791 44.6103 16.5001 44.8011 16.5001 45V47.25H18.0001V45.66C18.4399 45.5541 18.8511 45.3527 19.2044 45.0701C19.5577 44.7876 19.8446 44.4308 20.0446 44.025L22.0876 40.4768C22.3198 39.989 22.3568 39.4309 22.1911 38.9167C22.0793 38.5788 21.883 38.275 21.6208 38.0343C21.3586 37.7935 21.0393 37.6237 20.693 37.5411C20.3468 37.4584 19.9852 37.4656 19.6425 37.562C19.2998 37.6584 18.9875 37.8407 18.7351 38.0918V36H27.7651V38.0902C27.5121 37.839 27.1989 37.6568 26.8555 37.5608C26.5121 37.4649 26.1498 37.4584 25.8032 37.5421C25.4566 37.6258 25.1372 37.7968 24.8754 38.0389C24.6136 38.2809 24.4181 38.586 24.3076 38.925C24.1405 39.4571 24.1882 40.0334 24.4403 40.5308L26.4323 43.9808C26.6325 44.3953 26.9216 44.7607 27.279 45.051C27.6363 45.3412 28.0533 45.5491 28.5001 45.66V47.25H30.0001V45C30.0001 44.8011 29.9211 44.6103 29.7804 44.4697C29.6398 44.329 29.449 44.25 29.2501 44.25C28.934 44.2463 28.6254 44.1527 28.3605 43.98C28.0957 43.8073 27.8855 43.5628 27.7546 43.275L25.7671 39.8288C25.6995 39.6883 25.6883 39.5273 25.7356 39.3787C25.7705 39.2768 25.8327 39.1863 25.9155 39.1173C25.9982 39.0483 26.0984 39.0034 26.205 38.9874C26.3116 38.9715 26.4205 38.9851 26.5198 39.0269C26.6192 39.0687 26.7052 39.1369 26.7683 39.2243C26.8043 39.2739 26.8461 39.319 26.8928 39.3585L28.0306 40.3215C28.1397 40.4138 28.273 40.4731 28.4146 40.4922C28.5563 40.5114 28.7005 40.4897 28.8302 40.4296C28.9599 40.3695 29.0698 40.2737 29.1468 40.1533C29.2239 40.0329 29.2649 39.8929 29.2651 39.75V33.75C29.2645 33.7008 29.2736 33.6519 29.2919 33.6062C29.3102 33.5604 29.3373 33.5188 29.3717 33.4835C29.4062 33.4483 29.4472 33.4202 29.4924 33.4008C29.5377 33.3814 29.5863 33.3711 29.6356 33.3705C29.6848 33.3699 29.7337 33.379 29.7794 33.3973C29.8252 33.4156 29.8668 33.4427 29.9021 33.4772C29.9373 33.5116 29.9654 33.5526 29.9848 33.5978C30.0042 33.6431 30.0145 33.6918 30.0151 33.741V37.5H31.5151V32.25C31.5151 32.1505 31.5546 32.0552 31.6249 31.9848C31.6953 31.9145 31.7906 31.875 31.8901 31.875C31.9896 31.875 32.0849 31.9145 32.1553 31.9848C32.2256 32.0552 32.2651 32.1505 32.2651 32.25V37.5H33.7651V33.75C33.7651 33.6505 33.8046 33.5552 33.8749 33.4848C33.9453 33.4145 34.0406 33.375 34.1401 33.375C34.2396 33.375 34.3349 33.4145 34.4053 33.4848C34.4756 33.5552 34.5151 33.6505 34.5151 33.75V37.5H36.0151V35.25C36.0151 35.1505 36.0546 35.0552 36.1249 34.9848C36.1953 34.9145 36.2906 34.875 36.3901 34.875C36.4896 34.875 36.5849 34.9145 36.6553 34.9848C36.7256 35.0552 36.7651 35.1505 36.7651 35.25V41.25C36.7593 41.8892 36.5805 42.5149 36.2477 43.0606C35.915 43.6064 35.4406 44.0518 34.8751 44.3498C34.761 44.4156 34.6662 44.5104 34.6004 44.6246C34.5346 44.7387 34.5 44.8682 34.5001 45V47.25H36.0001V45.4155C36.6954 44.9655 37.2669 44.3485 37.6625 43.6209C38.0581 42.8933 38.2653 42.0782 38.2651 41.25V36H41.2501C41.375 36 41.498 35.9688 41.6079 35.9092C41.7177 35.8496 41.8109 35.7635 41.879 35.6588C41.9471 35.554 41.988 35.4339 41.9978 35.3093C42.0077 35.1848 41.9863 35.0597 41.9356 34.9455L39.0001 28.341V21H37.5001V27.75H9.0001V9H30.7501V7.5H8.2501C8.05118 7.5 7.86042 7.57902 7.71977 7.71967C7.57911 7.86032 7.5001 8.05109 7.5001 8.25ZM37.7626 29.25L40.0958 34.5H38.1061C37.9345 34.0996 37.6275 33.7723 37.239 33.5754C36.8504 33.3786 36.4049 33.3246 35.9806 33.423C35.9039 32.9899 35.6774 32.5976 35.3406 32.3146C35.0039 32.0316 34.5784 31.876 34.1386 31.875C34.001 31.8756 33.8639 31.8917 33.7298 31.923C33.6538 31.4898 33.4275 31.0972 33.0907 30.8143C32.7539 30.5314 32.3281 30.3763 31.8882 30.3763C31.4484 30.3763 31.0226 30.5314 30.6857 30.8143C30.3489 31.0972 30.1226 31.4898 30.0466 31.923C29.7726 31.8601 29.4879 31.86 29.2139 31.9227C28.9399 31.9854 28.6836 32.1092 28.4641 32.2849C28.2447 32.4606 28.0678 32.6837 27.9468 32.9374C27.8257 33.1911 27.7636 33.4689 27.7651 33.75V34.5H18.7351V33.75C18.7367 33.4688 18.6746 33.1909 18.5536 32.9371C18.4326 32.6833 18.2558 32.4602 18.0364 32.2844C17.8169 32.1086 17.5606 31.9847 17.2865 31.922C17.0124 31.8593 16.7276 31.8594 16.4536 31.9222C16.3776 31.489 16.1513 31.0964 15.8144 30.8135C15.4776 30.5307 15.0518 30.3756 14.612 30.3756C14.1721 30.3756 13.7463 30.5307 13.4095 30.8135C13.0727 31.0964 12.8464 31.489 12.7703 31.9222C12.6363 31.891 12.4992 31.8749 12.3616 31.8743C11.9218 31.8753 11.4963 32.0308 11.1595 32.3138C10.8228 32.5968 10.5963 32.9892 10.5196 33.4222C10.0952 33.3239 9.64964 33.378 9.26106 33.575C8.87247 33.772 8.56557 34.0995 8.3941 34.5H6.40435L8.73759 29.25H37.7626Z" fill="black"/>
<path d="M19.4885 15.4822L15.7385 17.7322C15.6276 17.7989 15.5359 17.8931 15.4722 18.0057C15.4085 18.1183 15.375 18.2455 15.375 18.3749C15.375 18.5043 15.4085 18.6315 15.4722 18.7441C15.5359 18.8568 15.6276 18.951 15.7385 19.0177L19.4885 21.2677L20.261 19.9822L17.5828 18.3749L20.261 16.7677L19.4885 15.4822Z" fill="black"/>
<path d="M27.0113 21.2677L30.7613 19.0177C30.8722 18.951 30.9639 18.8568 31.0276 18.7441C31.0913 18.6315 31.1248 18.5043 31.1248 18.3749C31.1248 18.2455 31.0913 18.1183 31.0276 18.0057C30.9639 17.8931 30.8722 17.7989 30.7613 17.7322L27.0113 15.4822L26.2388 16.7677L28.917 18.3749L26.2388 19.9822L27.0113 21.2677Z" fill="black"/>
<path d="M21.4146 21.1162L23.6638 15.1183L25.0685 15.6451L22.8193 21.643L21.4146 21.1162Z" fill="black"/>
<path d="M32.5498 8.99093C32.5508 9.96818 32.8046 10.9285 33.2865 11.7787C33.7684 12.6289 34.4621 13.3399 35.3001 13.8427V16.1497C35.3001 16.932 35.6108 17.6823 36.164 18.2355C36.7172 18.7887 37.4675 19.0994 38.2498 19.0994C39.0321 19.0994 39.7824 18.7887 40.3356 18.2355C40.8888 17.6823 41.1996 16.932 41.1996 16.1497V13.8427C42.275 13.1897 43.1042 12.1991 43.5578 11.0255C44.0115 9.85196 44.064 8.56126 43.7074 7.35467C43.3507 6.14807 42.6048 5.0934 41.586 4.35507C40.5672 3.61675 39.3327 3.23626 38.0751 3.27293C36.5938 3.32757 35.1911 3.95346 34.1611 5.01942C33.1311 6.08537 32.5536 7.50864 32.5498 8.99093ZM39.6996 16.1497C39.6996 16.5342 39.5468 16.9029 39.2749 17.1748C39.0031 17.4467 38.6343 17.5994 38.2498 17.5994C37.8653 17.5994 37.4966 17.4467 37.2247 17.1748C36.9528 16.9029 36.8001 16.5342 36.8001 16.1497V15.2497H39.6996V16.1497ZM38.1201 4.77293H38.2513C39.1966 4.77562 40.1133 5.09712 40.8532 5.68541C41.5931 6.27371 42.113 7.09441 42.3286 8.01477C42.5443 8.93513 42.4431 9.90133 42.0416 10.7571C41.64 11.6128 40.9615 12.3081 40.1158 12.7304C39.9908 12.7925 39.8857 12.8882 39.8122 13.0068C39.7386 13.1254 39.6996 13.2621 39.6996 13.4017V13.7519H36.8001V13.4017C36.8 13.2621 36.761 13.1254 36.6874 13.0068C36.6139 12.8882 36.5088 12.7925 36.3838 12.7304C35.684 12.3861 35.0945 11.8528 34.6821 11.1909C34.2696 10.529 34.0506 9.76485 34.0498 8.98493C34.0646 7.89665 34.4939 6.85499 35.2502 6.07233C36.0066 5.28968 37.0329 4.82496 38.1201 4.77293Z" fill="black"/>
<path d="M37.5 0.75H39V2.4H37.5V0.75Z" fill="black"/>
<path d="M31.8823 3.69946L32.943 2.6388L34.1097 3.80553L33.0491 4.86619L31.8823 3.69946Z" fill="black"/>
<path d="M42.3818 3.80762L43.5486 2.64089L44.6092 3.70155L43.4425 4.86828L42.3818 3.80762Z" fill="black"/>
</svg>
