<svg width="38" height="38" viewBox="0 0 38 38" fill="none" xmlns="http://www.w3.org/2000/svg">
<path d="M20.9712 28.9761H5.73553C4.47203 28.9761 3.44365 27.9489 3.44365 26.6842V12.1599H32.2168V20.4024C32.2168 20.9926 32.6953 21.4711 33.2855 21.4711C33.8757 21.4711 34.3543 20.9926 34.3543 20.4024V6.91237C34.3543 4.47681 32.3735 2.49487 29.9368 2.49487H5.72365C3.28809 2.49487 1.30615 4.47562 1.30615 6.91237V26.6842C1.30615 29.1269 3.29284 31.1136 5.73553 31.1136H20.9712C21.5613 31.1136 22.0399 30.6351 22.0399 30.0449C22.0399 29.4547 21.5613 28.9761 20.9712 28.9761ZM5.72365 4.63237H29.9368C31.1943 4.63237 32.2168 5.65481 32.2168 6.91237V10.0224H3.44365V6.91237C3.44365 5.656 4.46609 4.63237 5.72365 4.63237Z" fill="black"/>
<path d="M7.11295 8.27449C7.64025 8.27449 8.0677 7.84703 8.0677 7.31974C8.0677 6.79245 7.64025 6.36499 7.11295 6.36499C6.58566 6.36499 6.1582 6.79245 6.1582 7.31974C6.1582 7.84703 6.58566 8.27449 7.11295 8.27449Z" fill="black"/>
<path d="M10.4762 8.27449C11.0035 8.27449 11.431 7.84703 11.431 7.31974C11.431 6.79245 11.0035 6.36499 10.4762 6.36499C9.94894 6.36499 9.52148 6.79245 9.52148 7.31974C9.52148 7.84703 9.94894 8.27449 10.4762 8.27449Z" fill="black"/>
<path d="M13.839 8.27449C14.3663 8.27449 14.7938 7.84703 14.7938 7.31974C14.7938 6.79245 14.3663 6.36499 13.839 6.36499C13.3117 6.36499 12.8843 6.79245 12.8843 7.31974C12.8843 7.84703 13.3117 8.27449 13.839 8.27449Z" fill="black"/>
<path d="M35.1794 24.2036L24.9408 21.0888C24.1879 20.8608 23.3685 21.0638 22.8104 21.6208C22.2511 22.1801 22.0468 22.9959 22.2772 23.7523L25.392 33.9921C25.6675 34.897 26.4572 35.4908 27.4025 35.5038H27.4357C28.3667 35.5038 29.1576 34.9362 29.4568 34.0503L30.9127 29.7243L35.2411 28.266C36.1377 27.9632 36.7077 27.1557 36.6935 26.2116C36.6792 25.2664 36.0843 24.4779 35.1794 24.2036ZM30.2299 27.7008C29.6017 27.9133 29.1006 28.4144 28.8892 29.0414L27.4369 33.3699L24.3245 23.136L34.5583 26.2437L30.2299 27.7008Z" fill="black"/>
</svg>
