<svg xmlns="http://www.w3.org/2000/svg" viewBox="0 0 13.03 13.03"><title>icon-linkedin</title><g id="ea496ead-b023-479f-a944-79dfb79e88f1" data-name="Capa 2"><g id="b4e68659-b6f1-400e-8065-b9ff05169405" data-name="Capa 1"><path d="M6.52,0A6.52,6.52,0,1,0,13,6.52,6.52,6.52,0,0,0,6.52,0ZM4.62,9.85H3V5.08H4.62ZM3.83,4.42h0a.82.82,0,0,1-.88-.82.83.83,0,0,1,.9-.83.83.83,0,1,1,0,1.65Zm6.52,5.43H8.76V7.3c0-.65-.23-1.08-.81-1.08a.86.86,0,0,0-.81.58,1.09,1.09,0,0,0,0,.38V9.85H5.5s0-4.33,0-4.77H7.09v.67A1.59,1.59,0,0,1,8.52,5c1,0,1.83.69,1.83,2.15Z" fill="#009fe3"/></g></g></svg>