<svg xmlns="http://www.w3.org/2000/svg" viewBox="0 0 9.01 6.17"><title>icon-email</title><g id="a1121111-b055-438e-9514-56dee87ef4c6" data-name="Capa 2"><g id="ed15ce83-f8db-4f5a-8a8a-6149e95e7490" data-name="Capa 1"><g id="b95f1855-80b0-4b7c-b2b8-4acc696502eb" data-name="new mail"><path d="M8.13,0H.88A.91.91,0,0,0,0,.94v4.3a.91.91,0,0,0,.88.93H8.13A.91.91,0,0,0,9,5.24V.94A.91.91,0,0,0,8.13,0ZM.54,5.24V.92L2.93,3.09.55,5.25ZM4.72,3.56a.32.32,0,0,1-.43,0L1,.58H8ZM3.35,3.47,3.94,4A.81.81,0,0,0,5.07,4l.59-.53L8,5.59H1Zm2.73-.38L8.46.92V5.24h0Z" fill="#3c3c3b"/></g></g></g></svg>