<svg xmlns="http://www.w3.org/2000/svg" viewBox="0 0 13.03 13.03"><title>icon-instagram</title><g id="f81c5fb9-85b9-48c9-a1f2-1c724418fab0" data-name="Capa 2"><g id="a425c020-bb0e-4e52-aba3-8c54939126fd" data-name="Capa 1"><path d="M7.76,6.52a1.25,1.25,0,0,1-2.49,0,1.25,1.25,0,1,1,2.49,0Z" fill="#009fe3"/><path d="M9.43,4.31a1.11,1.11,0,0,0-.28-.43,1,1,0,0,0-.43-.28A2.17,2.17,0,0,0,8,3.47c-.4,0-.51,0-1.51,0s-1.12,0-1.52,0a2.17,2.17,0,0,0-.69.13,1.24,1.24,0,0,0-.71.71A2.17,2.17,0,0,0,3.47,5c0,.4,0,.52,0,1.52s0,1.11,0,1.51a2.17,2.17,0,0,0,.13.69,1,1,0,0,0,.28.43,1.11,1.11,0,0,0,.43.28A1.91,1.91,0,0,0,5,9.56c.4,0,.52,0,1.52,0s1.11,0,1.51,0a1.91,1.91,0,0,0,.69-.13,1.19,1.19,0,0,0,.71-.71A1.91,1.91,0,0,0,9.56,8c0-.4,0-.51,0-1.51s0-1.12,0-1.52A1.91,1.91,0,0,0,9.43,4.31ZM6.52,8.44A1.93,1.93,0,1,1,8.44,6.52,1.93,1.93,0,0,1,6.52,8.44ZM8.51,5a.45.45,0,1,1,0-.9.45.45,0,1,1,0,.9Z" fill="#009fe3"/><path d="M6.52,0A6.52,6.52,0,1,0,13,6.52,6.52,6.52,0,0,0,6.52,0Zm3.72,8.06a2.86,2.86,0,0,1-.18.91A1.89,1.89,0,0,1,9,10.06a2.86,2.86,0,0,1-.91.18c-.4,0-.53,0-1.54,0s-1.15,0-1.55,0a2.79,2.79,0,0,1-.9-.18,1.83,1.83,0,0,1-.67-.43A1.93,1.93,0,0,1,3,9a2.89,2.89,0,0,1-.17-.91c0-.4,0-.53,0-1.54s0-1.15,0-1.55A2.82,2.82,0,0,1,3,4.07,1.87,1.87,0,0,1,4.07,3,2.82,2.82,0,0,1,5,2.8c.4,0,.53,0,1.55,0s1.14,0,1.54,0A2.89,2.89,0,0,1,9,3a1.8,1.8,0,0,1,.66.43,1.83,1.83,0,0,1,.43.67,2.79,2.79,0,0,1,.18.9c0,.4,0,.53,0,1.55S10.25,7.66,10.24,8.06Z" fill="#009fe3"/></g></g></svg>