<svg xmlns="http://www.w3.org/2000/svg" viewBox="0 0 8.87 8.87"><title>icon-whatsapp</title><g id="ef51f6ab-938e-429e-b703-a352d8e79ac5" data-name="Capa 2"><g id="a3390244-b4fb-4e99-89d2-fe9f578a7afc" data-name="Capa 1"><path d="M8.87,4.21a4.35,4.35,0,0,0-8.7-.08,1.28,1.28,0,0,0,0,.19A4.32,4.32,0,0,0,.78,6.55L0,8.87l2.41-.76a4.4,4.4,0,0,0,2.11.53A4.33,4.33,0,0,0,8.87,4.32ZM4.52,8a3.66,3.66,0,0,1-2-.6L1.09,7.8l.46-1.35a3.58,3.58,0,0,1-.7-2.13c0-.12,0-.23,0-.35A3.66,3.66,0,0,1,8.16,4a2.64,2.64,0,0,1,0,.28A3.65,3.65,0,0,1,4.52,8Z" fill="#3c3c3b" fill-rule="evenodd"/><path d="M6.51,5.19c-.11-.05-.63-.31-.73-.34s-.17,0-.24.05-.28.35-.34.42-.12.08-.23,0a2.79,2.79,0,0,1-.86-.52,3.43,3.43,0,0,1-.59-.73.15.15,0,0,1,0-.22,2.31,2.31,0,0,1,.16-.19l0-.05a1.34,1.34,0,0,0,.06-.12.18.18,0,0,0,0-.19l-.33-.79c-.08-.21-.17-.17-.24-.17h-.2a.43.43,0,0,0-.29.13,1.22,1.22,0,0,0-.37.89,1.13,1.13,0,0,0,.06.36,2.22,2.22,0,0,0,.38.73,4.4,4.4,0,0,0,1.82,1.6c1.09.42,1.09.28,1.28.26a1,1,0,0,0,.72-.5,1,1,0,0,0,.07-.5C6.69,5.27,6.62,5.25,6.51,5.19Z" fill="#3c3c3b" fill-rule="evenodd"/></g></g></svg>