<svg width="23" height="23" viewBox="0 0 23 23" fill="none" xmlns="http://www.w3.org/2000/svg">
<path d="M11.062 1.84351C13.5666 1.84351 13.8791 1.85272 14.8618 1.89882C15.8436 1.94491 16.5119 2.09885 17.1 2.32747C17.7084 2.56161 18.221 2.87872 18.7335 3.39033C19.2022 3.85115 19.5649 4.40858 19.7964 5.02382C20.0241 5.61102 20.1789 6.28027 20.225 7.26202C20.2683 8.24469 20.2803 8.55719 20.2803 11.0618C20.2803 13.5664 20.2711 13.8789 20.225 14.8616C20.1789 15.8433 20.0241 16.5116 19.7964 17.0998C19.5656 17.7153 19.2028 18.2729 18.7335 18.7333C18.2725 19.2018 17.7152 19.5645 17.1 19.7961C16.5128 20.0238 15.8436 20.1787 14.8618 20.2248C13.8791 20.2681 13.5666 20.2801 11.062 20.2801C8.55743 20.2801 8.24493 20.2709 7.26226 20.2248C6.28051 20.1787 5.61219 20.0238 5.02406 19.7961C4.40858 19.5652 3.85106 19.2024 3.39058 18.7333C2.92174 18.2725 2.55903 17.7151 2.32771 17.0998C2.0991 16.5126 1.94515 15.8433 1.89906 14.8616C1.85573 13.8789 1.84375 13.5664 1.84375 11.0618C1.84375 8.55719 1.85297 8.24469 1.89906 7.26202C1.94515 6.27935 2.0991 5.61194 2.32771 5.02382C2.55839 4.4082 2.92119 3.85062 3.39058 3.39033C3.85119 2.92134 4.40867 2.5586 5.02406 2.32747C5.61219 2.09885 6.27959 1.94491 7.26226 1.89882C8.24493 1.85549 8.55743 1.84351 11.062 1.84351ZM11.062 6.45265C9.83962 6.45265 8.66726 6.93825 7.80288 7.80264C6.9385 8.66702 6.45289 9.83937 6.45289 11.0618C6.45289 12.2842 6.9385 13.4566 7.80288 14.321C8.66726 15.1853 9.83962 15.6709 11.062 15.6709C12.2845 15.6709 13.4568 15.1853 14.3212 14.321C15.1856 13.4566 15.6712 12.2842 15.6712 11.0618C15.6712 9.83937 15.1856 8.66702 14.3212 7.80264C13.4568 6.93825 12.2845 6.45265 11.062 6.45265ZM17.0539 6.22219C17.0539 5.91659 16.9325 5.6235 16.7164 5.4074C16.5003 5.19131 16.2072 5.06991 15.9016 5.06991C15.596 5.06991 15.3029 5.19131 15.0869 5.4074C14.8708 5.6235 14.7494 5.91659 14.7494 6.22219C14.7494 6.5278 14.8708 6.82089 15.0869 7.03698C15.3029 7.25308 15.596 7.37448 15.9016 7.37448C16.2072 7.37448 16.5003 7.25308 16.7164 7.03698C16.9325 6.82089 17.0539 6.5278 17.0539 6.22219ZM11.062 8.29631C11.7955 8.29631 12.4989 8.58767 13.0175 9.1063C13.5362 9.62493 13.8275 10.3283 13.8275 11.0618C13.8275 11.7952 13.5362 12.4987 13.0175 13.0173C12.4989 13.5359 11.7955 13.8273 11.062 13.8273C10.3286 13.8273 9.62517 13.5359 9.10654 13.0173C8.58791 12.4987 8.29655 11.7952 8.29655 11.0618C8.29655 10.3283 8.58791 9.62493 9.10654 9.1063C9.62517 8.58767 10.3286 8.29631 11.062 8.29631Z" fill="white"/>
</svg>
