<svg width="235" height="40" viewBox="0 0 235 40" fill="none" xmlns="http://www.w3.org/2000/svg">
<g clip-path="url(#clip0_22_526)">
<path fill-rule="evenodd" clip-rule="evenodd" d="M37.669 13.5711L21.6329 0.731213C21.0212 0.239139 20.2854 0 19.5542 0C18.823 0 18.0872 0.239139 17.4755 0.731213L1.43943 13.5711C0.570254 14.169 0 15.1715 0 16.3074V34.9419C0 37.2459 1.86712 39.113 4.17113 39.113H22.8148C23.7115 39.113 24.4428 38.3864 24.4428 37.485V33.4059C24.4428 32.5091 23.7161 31.7779 22.8148 31.7779H9.11027C8.12613 31.7779 7.33053 30.9823 7.33053 29.9981V19.5542C7.33053 18.7264 7.70763 17.94 8.35607 17.425L18.4413 9.35401C19.0897 8.83434 20.0141 8.83434 20.6671 9.35401L30.7523 17.425C31.4008 17.9446 31.7779 18.7264 31.7779 19.5542V37.4804C31.7779 38.3772 32.5045 39.1084 33.4059 39.1084H37.485C38.3818 39.1084 39.113 38.3818 39.113 37.4804V16.3028C39.113 15.1669 38.5428 14.169 37.6736 13.5665L37.669 13.5711Z" fill="#FFDA00"/>
<path d="M142.021 9.77713C141.768 9.77713 141.685 9.54719 141.851 9.31725L146.146 3.71588C146.358 3.43995 146.569 3.256 146.905 3.256H152.883C153.136 3.256 153.261 3.48594 153.095 3.71588L147.705 9.36324C147.411 9.68516 147.241 9.77713 146.864 9.77713H142.021Z" fill="#FFDA00"/>
<path d="M52.1461 13.4008C52.1461 13.1709 52.2841 13.0191 52.491 13.0191H67.8419C68.0489 13.0191 68.1868 13.1709 68.1868 13.4008V18.3491C68.1868 18.5791 68.0489 18.7308 67.8419 18.7308H58.4235C58.2856 18.7308 58.2166 18.809 58.2166 18.9608V22.9112C58.2166 23.0629 58.2856 23.1411 58.4235 23.1411H66.1495C66.3565 23.1411 66.4945 23.2929 66.4945 23.5228V28.3562C66.4945 28.5861 66.3565 28.7379 66.1495 28.7379H58.4235C58.2856 28.7379 58.2166 28.8161 58.2166 28.9678V33.1482C58.2166 33.2999 58.2856 33.3781 58.4235 33.3781H67.8419C68.0489 33.3781 68.1868 33.5299 68.1868 33.7598V38.7081C68.1868 38.9381 68.0489 39.0898 67.8419 39.0898H52.491C52.2841 39.0898 52.1461 38.9381 52.1461 38.7081V13.4008Z" fill="#004A98"/>
<path d="M71.0795 26.0616C71.0795 22.1848 71.2496 20.7683 71.7693 19.0024C73.011 14.7439 76.0462 12.5548 80.2909 12.5548C84.5356 12.5548 87.3961 14.7439 88.7068 18.5011C88.8125 18.7679 88.7757 18.9242 88.532 19.0392L83.9424 21.265C83.7032 21.38 83.5607 21.3018 83.4595 21.0351C82.8065 19.4991 81.9741 18.5793 80.3875 18.5793C78.9021 18.5793 77.9731 19.3841 77.5592 20.8419C77.3201 21.6467 77.2143 22.4515 77.2143 26.0616C77.2143 29.6717 77.3201 30.4765 77.5592 31.2813C77.9731 32.7391 78.9067 33.5439 80.3875 33.5439C81.9741 33.5439 82.8019 32.6241 83.4595 31.0881C83.5653 30.8214 83.7032 30.7432 83.9424 30.8582L88.532 33.084C88.7757 33.199 88.8079 33.3507 88.7068 33.6221C87.3961 37.3839 84.4299 39.5683 80.2909 39.5683C76.152 39.5683 73.011 37.3793 71.7693 33.1208C71.2496 31.3548 71.0795 29.9384 71.0795 26.0616Z" fill="#004A98"/>
<path d="M91.5764 33.1622C91.0246 31.1663 90.8866 29.6303 90.8866 26.0616C90.8866 22.4929 91.0246 20.9569 91.5764 18.961C92.8181 14.7025 96.235 12.5548 100.374 12.5548C104.513 12.5548 107.93 14.7025 109.172 18.961C109.76 20.9569 109.861 22.4929 109.861 26.0616C109.861 29.6303 109.756 31.1663 109.172 33.1622C107.93 37.4207 104.513 39.5683 100.374 39.5683C96.235 39.5683 92.8181 37.4207 91.5764 33.1622ZM103.372 31.2399C103.648 30.3569 103.717 29.1658 103.717 26.0616C103.717 22.9574 103.648 21.7663 103.372 20.8833C102.959 19.4255 101.887 18.5793 100.369 18.5793C98.8518 18.5793 97.7802 19.4255 97.3663 20.8833C97.0904 21.7663 97.0214 22.9574 97.0214 26.0616C97.0214 29.1658 97.0904 30.3569 97.3663 31.2399C97.7802 32.6977 98.8518 33.5439 100.369 33.5439C101.887 33.5439 102.959 32.6977 103.372 31.2399Z" fill="#004A98"/>
<path d="M113.108 13.4008C113.108 13.1709 113.246 13.0191 113.453 13.0191H118.526C118.765 13.0191 119.008 13.1341 119.114 13.4008L126.187 28.1722H126.325V13.4008C126.325 13.1709 126.463 13.0191 126.67 13.0191H131.499C131.706 13.0191 131.844 13.1709 131.844 13.4008V38.7265C131.844 38.9565 131.706 39.1082 131.499 39.1082H126.426C126.187 39.1082 125.943 38.9933 125.838 38.7265L118.834 23.9919H118.627V38.7265C118.627 38.9565 118.489 39.1082 118.282 39.1082H113.453C113.246 39.1082 113.108 38.9565 113.108 38.7265V13.4008Z" fill="#004A98"/>
<path d="M153.371 18.9656C152.129 14.7071 148.712 12.5594 144.573 12.5594C140.434 12.5594 137.017 14.7071 135.776 18.9656C135.224 20.9615 135.086 22.4975 135.086 26.0662C135.086 29.6349 135.224 31.1709 135.776 33.1668C137.017 37.4253 140.434 39.5729 144.573 39.5729C148.712 39.5729 152.129 37.4253 153.371 33.1668C153.959 31.1709 154.061 29.6349 154.061 26.0662C154.061 22.4975 153.955 20.9615 153.371 18.9656ZM147.576 31.2399C147.162 32.6977 146.091 33.5439 144.573 33.5439C143.056 33.5439 141.984 32.6977 141.57 31.2399C141.294 30.3569 141.225 29.1658 141.225 26.0616C141.225 22.9574 141.294 21.7663 141.57 20.8833C141.984 19.4255 143.056 18.5793 144.573 18.5793C146.091 18.5793 147.162 19.4255 147.576 20.8833C147.852 21.7663 147.921 22.9574 147.921 26.0616C147.921 29.1658 147.852 30.3569 147.576 31.2399Z" fill="#004A98"/>
<path d="M157.307 13.4008C157.307 13.1709 157.445 13.0191 157.652 13.0191H162.757C162.996 13.0191 163.24 13.0973 163.346 13.4008L168.763 27.0225H168.901L174.181 13.4008C174.286 13.0927 174.525 13.0191 174.769 13.0191H179.805C180.012 13.0191 180.15 13.1709 180.15 13.4008V38.7265C180.15 38.9565 180.012 39.1082 179.805 39.1082H175.008C174.801 39.1082 174.663 38.9565 174.663 38.7265V25.298H174.493L170.731 35.0429C170.561 35.4246 170.285 35.5442 170.078 35.5442H167.388C167.181 35.5442 166.937 35.4292 166.73 35.0429L162.969 25.298H162.798V38.7265C162.798 38.9565 162.66 39.1082 162.454 39.1082H157.657C157.45 39.1082 157.312 38.9565 157.312 38.7265V13.4008H157.307Z" fill="#004A98"/>
<path d="M183.944 13.4008C183.944 13.1709 184.082 13.0191 184.289 13.0191H189.669C189.876 13.0191 190.014 13.1709 190.014 13.4008V38.7265C190.014 38.9565 189.876 39.1082 189.669 39.1082H184.289C184.082 39.1082 183.944 38.9565 183.944 38.7265V13.4008Z" fill="#004A98"/>
<path d="M193.261 26.0616C193.261 22.1848 193.431 20.7683 193.951 19.0024C195.193 14.7439 198.228 12.5548 202.472 12.5548C206.717 12.5548 209.578 14.7439 210.888 18.5011C210.994 18.7679 210.957 18.9242 210.714 19.0392L206.124 21.265C205.885 21.38 205.742 21.3018 205.641 21.0351C204.988 19.4991 204.156 18.5793 202.569 18.5793C201.084 18.5793 200.155 19.3841 199.741 20.8419C199.502 21.6467 199.396 22.4515 199.396 26.0616C199.396 29.6717 199.502 30.4765 199.741 31.2813C200.155 32.7391 201.088 33.5439 202.569 33.5439C204.156 33.5439 204.983 32.6241 205.641 31.0881C205.747 30.8214 205.885 30.7432 206.124 30.8582L210.714 33.084C210.957 33.199 210.99 33.3507 210.888 33.6221C209.578 37.3839 206.611 39.5683 202.472 39.5683C198.334 39.5683 195.193 37.3793 193.951 33.1208C193.431 31.3548 193.261 29.9384 193.261 26.0616Z" fill="#004A98"/>
<path d="M220.173 13.4008C220.242 13.1709 220.38 13.0191 220.624 13.0191H226.248C226.488 13.0191 226.63 13.1709 226.699 13.4008L234.632 38.7265C234.701 38.9565 234.595 39.1082 234.393 39.1082H228.7C228.46 39.1082 228.318 38.9565 228.253 38.7265L227.15 34.698H219.525L218.421 38.7265C218.352 38.9565 218.214 39.1082 217.971 39.1082H212.314C212.107 39.1082 212.001 38.9565 212.075 38.7265L220.183 13.4008H220.173ZM225.623 29.092L223.448 20.9567H223.342L221.066 29.092H225.618H225.623Z" fill="#004A98"/>
<path d="M52.1415 0.142548C52.1415 0.0551707 52.2105 -1.52588e-05 52.3162 -1.52588e-05H55.6182C55.724 -1.52588e-05 55.7929 0.0551707 55.7929 0.142548V7.01319C55.7929 7.07298 55.8297 7.10057 55.8987 7.10057H60.6401C60.7459 7.10057 60.8149 7.16036 60.8149 7.24314V9.62993C60.8149 9.7173 60.7459 9.77249 60.6401 9.77249H52.3208C52.2151 9.77249 52.1461 9.71271 52.1461 9.62993V0.142548H52.1415Z" fill="#004A98"/>
<path d="M65.3262 0.142533C65.363 0.0551554 65.432 -3.05176e-05 65.5516 -3.05176e-05H69.0973C69.2169 -3.05176e-05 69.2904 0.0551554 69.3226 0.142533L73.319 9.62991C73.3558 9.71729 73.3006 9.77247 73.1994 9.77247H69.6721C69.5526 9.77247 69.479 9.71269 69.4468 9.62991L69.0145 8.35144H65.5424L65.1101 9.62991C65.0733 9.71729 65.0043 9.77247 64.8848 9.77247H61.3575C61.2517 9.77247 61.2011 9.71269 61.2379 9.62991L65.3262 0.142533ZM68.1913 5.89566L67.3221 3.29273H67.2715L66.3702 5.89566H68.1959H68.1913Z" fill="#004A98"/>
</g>
<defs>
<clipPath id="clip0_22_526">
<rect width="235" height="40.0098" fill="white"/>
</clipPath>
</defs>
</svg>
