<svg width="333" height="61" viewBox="0 0 333 61" fill="none" xmlns="http://www.w3.org/2000/svg">
<g clip-path="url(#clip0_5_206)">
<path d="M170.541 38.5669C170.411 39.9328 169.893 46.8909 162.346 46.8909C154.8 46.8909 153.715 40.1417 153.715 32.8944C153.715 24.1525 156.306 18.9942 162.638 18.9942C169.86 18.9942 170.411 25.1328 170.524 27.3022H165.699C165.618 26.3862 165.553 23.0919 162.557 23.0919C159.561 23.0919 158.751 26.804 158.751 32.9908C158.751 38.0848 159.269 42.8575 162.427 42.8575C165.326 42.8575 165.569 39.5954 165.682 38.5669H170.541Z" fill="#1CA3FD"/>
<path d="M190.686 32.7176C190.686 42.6004 187.982 46.8909 181.714 46.8909C175.852 46.8909 173.002 42.6486 173.002 32.6533C173.002 22.6581 176.322 18.9781 181.941 18.9781C187.868 18.9781 190.702 23.333 190.702 32.7015L190.686 32.7176ZM177.99 32.6212C177.99 39.0329 178.961 42.8414 181.828 42.8414C184.84 42.8414 185.698 39.3061 185.698 32.6372C185.698 26.3541 184.791 23.0919 181.828 23.0919C178.864 23.0919 177.99 26.6112 177.99 32.6212Z" fill="#1CA3FD"/>
<path d="M194.508 46.4249V19.412H200.046C205.666 34.3406 206.751 37.1849 207.074 38.5026H207.107C206.88 35.2566 206.864 31.2874 206.864 26.8522V19.3959H211.22V46.4088H205.908C200.095 30.5 199.058 27.6236 198.718 26.3862H198.686C198.88 29.7126 198.896 33.6978 198.896 38.5348V46.4088H194.508V46.4249Z" fill="#1CA3FD"/>
<path d="M219.188 38.8562C219.431 41.0898 220.338 43.0664 222.815 43.0664C225.293 43.0664 226.103 41.5719 226.103 39.5632C226.103 37.3456 225.002 36.0601 221.552 34.421C216.888 32.2194 215.075 30.275 215.075 26.2737C215.075 21.9349 217.876 18.9781 222.799 18.9781C228.92 18.9781 230.427 23.0919 230.508 26.6112H225.73C225.568 25.0685 225.18 22.8027 222.702 22.8027C220.775 22.8027 219.917 24.04 219.917 25.872C219.917 27.8164 220.791 28.7324 223.981 30.1947C228.872 32.4283 231.058 34.6138 231.058 39.1293C231.058 43.3717 228.418 46.8749 222.67 46.8749C216.402 46.8749 214.508 42.9057 214.33 38.8562H219.188Z" fill="#1CA3FD"/>
<path d="M239.074 19.412V37.9884C239.074 40.206 239.625 42.8253 242.621 42.8253C245.616 42.8253 246.135 40.6077 246.135 38.0205V19.412H251.009V38.1009C251.009 42.9539 249.098 46.8909 242.523 46.8909C235.949 46.8909 234.167 43.1789 234.167 38.1009V19.412H239.058H239.074Z" fill="#1CA3FD"/>
<path d="M255.301 19.412H260.175V42.295H269.487L269.017 46.4249H255.301V19.412Z" fill="#1CA3FD"/>
<path d="M272.369 23.6544H266.556V19.4281H283.074V23.6544H277.26V46.4249H272.386V23.6544H272.369Z" fill="#1CA3FD"/>
<path d="M290.604 19.412V46.4249H285.729V19.412H290.604Z" fill="#1CA3FD"/>
<path d="M295.414 46.4249V19.412H300.952C306.571 34.3406 307.656 37.1849 307.98 38.5026H308.013C307.786 35.2566 307.77 31.2874 307.77 26.8522V19.3959H312.126V46.4088H306.814C301.001 30.5 299.964 27.6236 299.624 26.3862H299.592C299.786 29.7126 299.802 33.6978 299.802 38.5348V46.4088H295.414V46.4249Z" fill="#1CA3FD"/>
<path d="M333 46.4249H329.292C329.178 45.6054 329.097 44.9947 329.065 44.127C327.85 46.2642 325.956 46.8909 323.656 46.8909C317.972 46.8909 315.915 41.8612 315.915 33.0872C315.915 23.2205 319.267 18.9781 325.114 18.9781C332.482 18.9781 332.903 25.2453 332.984 26.8522H328.174C328.093 25.7595 327.85 23.0759 324.984 23.0759C321.842 23.0759 320.968 27.2218 320.968 33.0711C320.968 39.3704 321.713 42.8253 324.822 42.8253C327.413 42.8253 328.19 40.8649 328.19 36.8796V35.3691H324.531V31.2392H333.032V46.4088L333 46.4249Z" fill="#1CA3FD"/>
<path d="M27.1738 60.9839C42.1814 60.9839 54.3475 48.9114 54.3475 34.0192C54.3475 19.127 42.1814 7.05453 27.1738 7.05453C12.1661 7.05453 0 19.127 0 34.0192C0 48.9114 12.1661 60.9839 27.1738 60.9839Z" fill="#67D644"/>
<path d="M109.278 60.9839C124.286 60.9839 136.452 48.9114 136.452 34.0192C136.452 19.127 124.286 7.05453 109.278 7.05453C94.2704 7.05453 82.1042 19.127 82.1042 34.0192C82.1042 48.9114 94.2704 60.9839 109.278 60.9839Z" fill="#996DF5"/>
<path d="M69.7482 53.9294C84.7559 53.9294 96.922 41.8569 96.922 26.9647C96.922 12.0725 84.7559 0 69.7482 0C54.7406 0 42.5745 12.0725 42.5745 26.9647C42.5745 41.8569 54.7406 53.9294 69.7482 53.9294Z" fill="#1CA3FD"/>
<path d="M61.9588 13.2092H70.5417C75.1732 13.2092 77.7481 15.5553 77.7481 19.7816C77.7481 22.9795 76.2744 24.49 74.6712 25.0685C76.5173 25.8077 78.4444 27.4147 78.4444 31.2231C78.4444 36.3011 75.3352 38.824 70.3312 38.824H61.9426V13.1931L61.9588 13.2092ZM69.311 23.2044C71.4972 23.2044 72.0154 22.3206 72.0154 20.344C72.0154 18.3675 71.1895 17.5158 69.3757 17.5158H67.7401V23.2044H69.3272H69.311ZM67.7239 34.5817H69.6025C71.4324 34.5817 72.3878 33.7139 72.3878 31.0303C72.3878 28.3467 71.6267 27.3343 69.2462 27.3343H67.7239V34.5656V34.5817Z" fill="white"/>
<path d="M35.5461 32.7497C35.5461 42.1504 32.9713 46.216 26.5422 46.216C20.5504 46.216 17.8945 42.0861 17.8945 32.6212C17.8945 23.1562 20.8419 19.6209 26.7851 19.6209C32.7284 19.6209 35.5461 23.8311 35.5461 32.7497ZM24.1131 32.6212C24.1131 38.9526 24.6961 41.588 26.7203 41.588C28.8742 41.588 29.36 39.1454 29.36 32.6212C29.36 26.5308 28.8418 24.2811 26.7203 24.2811C24.5989 24.2811 24.1131 26.6433 24.1131 32.6212Z" fill="white"/>
<path d="M112.662 20.4083V46.0393H106.719V20.4083H112.662Z" fill="white"/>
</g>
<defs>
<clipPath id="clip0_5_206">
<rect width="333" height="61" fill="white"/>
</clipPath>
</defs>
</svg>
