<svg width="235" height="40" viewBox="0 0 235 40" fill="none" xmlns="http://www.w3.org/2000/svg">
<g clip-path="url(#clip0_22_24)">
<path fill-rule="evenodd" clip-rule="evenodd" d="M37.669 13.5711L21.6329 0.731213C21.0212 0.239139 20.2854 0 19.5542 0C18.823 0 18.0872 0.239139 17.4755 0.731213L1.43943 13.5711C0.570254 14.169 0 15.1715 0 16.3074V34.9419C0 37.2459 1.86712 39.113 4.17113 39.113H22.8148C23.7115 39.113 24.4428 38.3864 24.4428 37.485V33.4059C24.4428 32.5091 23.7161 31.7779 22.8148 31.7779H9.11027C8.12613 31.7779 7.33053 30.9823 7.33053 29.9981V19.5542C7.33053 18.7264 7.70763 17.94 8.35607 17.425L18.4413 9.35401C19.0897 8.83434 20.0141 8.83434 20.6671 9.35401L30.7523 17.425C31.4008 17.9446 31.7779 18.7264 31.7779 19.5542V37.4804C31.7779 38.3772 32.5045 39.1084 33.4059 39.1084H37.485C38.3818 39.1084 39.113 38.3818 39.113 37.4804V16.3028C39.113 15.1669 38.5428 14.169 37.6736 13.5665L37.669 13.5711Z" fill="#FFDA00"/>
<path d="M142.021 9.77724C141.768 9.77724 141.685 9.5473 141.851 9.31736L146.146 3.71599C146.358 3.44006 146.569 3.2561 146.905 3.2561H152.883C153.136 3.2561 153.261 3.48604 153.095 3.71599L147.705 9.36334C147.411 9.68526 147.241 9.77724 146.864 9.77724H142.021Z" fill="#FFDA00"/>
<path d="M52.1461 13.4007C52.1461 13.1708 52.2841 13.019 52.491 13.019H67.8419C68.0489 13.019 68.1868 13.1708 68.1868 13.4007V18.3491C68.1868 18.579 68.0489 18.7308 67.8419 18.7308H58.4235C58.2856 18.7308 58.2166 18.809 58.2166 18.9607V22.9111C58.2166 23.0629 58.2856 23.1411 58.4235 23.1411H66.1495C66.3565 23.1411 66.4945 23.2928 66.4945 23.5228V28.3561C66.4945 28.5861 66.3565 28.7378 66.1495 28.7378H58.4235C58.2856 28.7378 58.2166 28.816 58.2166 28.9678V33.1481C58.2166 33.2999 58.2856 33.378 58.4235 33.378H67.8419C68.0489 33.378 68.1868 33.5298 68.1868 33.7598V38.7081C68.1868 38.938 68.0489 39.0898 67.8419 39.0898H52.491C52.2841 39.0898 52.1461 38.938 52.1461 38.7081V13.4007Z" fill="white"/>
<path d="M71.0795 26.0614C71.0795 22.1846 71.2496 20.7682 71.7693 19.0022C73.011 14.7437 76.0462 12.5547 80.2909 12.5547C84.5356 12.5547 87.3961 14.7437 88.7068 18.501C88.8125 18.7677 88.7757 18.9241 88.532 19.039L83.9424 21.2649C83.7032 21.3798 83.5607 21.3017 83.4595 21.0349C82.8065 19.4989 81.9741 18.5792 80.3875 18.5792C78.9021 18.5792 77.9731 19.3839 77.5592 20.8418C77.3201 21.6466 77.2143 22.4514 77.2143 26.0614C77.2143 29.6715 77.3201 30.4763 77.5592 31.2811C77.9731 32.7389 78.9067 33.5437 80.3875 33.5437C81.9741 33.5437 82.8019 32.624 83.4595 31.088C83.5653 30.8212 83.7032 30.743 83.9424 30.858L88.532 33.0838C88.7757 33.1988 88.8079 33.3506 88.7068 33.6219C87.3961 37.3837 84.4299 39.5682 80.2909 39.5682C76.152 39.5682 73.011 37.3791 71.7693 33.1206C71.2496 31.3547 71.0795 29.9382 71.0795 26.0614Z" fill="white"/>
<path d="M91.5764 33.162C91.0246 31.1661 90.8866 29.6301 90.8866 26.0614C90.8866 22.4927 91.0246 20.9567 91.5764 18.9609C92.8181 14.7023 96.235 12.5547 100.374 12.5547C104.513 12.5547 107.93 14.7023 109.172 18.9609C109.76 20.9567 109.861 22.4927 109.861 26.0614C109.861 29.6301 109.756 31.1661 109.172 33.162C107.93 37.4205 104.513 39.5682 100.374 39.5682C96.235 39.5682 92.8181 37.4205 91.5764 33.162ZM103.372 31.2397C103.648 30.3567 103.717 29.1656 103.717 26.0614C103.717 22.9572 103.648 21.7661 103.372 20.8832C102.959 19.4253 101.887 18.5792 100.369 18.5792C98.8518 18.5792 97.7802 19.4253 97.3663 20.8832C97.0904 21.7661 97.0214 22.9572 97.0214 26.0614C97.0214 29.1656 97.0904 30.3567 97.3663 31.2397C97.7802 32.6975 98.8518 33.5437 100.369 33.5437C101.887 33.5437 102.959 32.6975 103.372 31.2397Z" fill="white"/>
<path d="M113.108 13.4007C113.108 13.1708 113.246 13.019 113.453 13.019H118.526C118.765 13.019 119.008 13.134 119.114 13.4007L126.187 28.1722H126.325V13.4007C126.325 13.1708 126.463 13.019 126.67 13.019H131.499C131.706 13.019 131.844 13.1708 131.844 13.4007V38.7265C131.844 38.9564 131.706 39.1082 131.499 39.1082H126.426C126.187 39.1082 125.943 38.9932 125.838 38.7265L118.834 23.9918H118.627V38.7265C118.627 38.9564 118.489 39.1082 118.282 39.1082H113.453C113.246 39.1082 113.108 38.9564 113.108 38.7265V13.4007Z" fill="white"/>
<path d="M153.371 18.9655C152.129 14.707 148.712 12.5593 144.573 12.5593C140.434 12.5593 137.017 14.707 135.776 18.9655C135.224 20.9614 135.086 22.4974 135.086 26.0661C135.086 29.6348 135.224 31.1708 135.776 33.1667C137.017 37.4252 140.434 39.5728 144.573 39.5728C148.712 39.5728 152.129 37.4252 153.371 33.1667C153.959 31.1708 154.061 29.6348 154.061 26.0661C154.061 22.4974 153.955 20.9614 153.371 18.9655ZM147.576 31.2398C147.162 32.6976 146.091 33.5438 144.573 33.5438C143.056 33.5438 141.984 32.6976 141.57 31.2398C141.294 30.3568 141.225 29.1657 141.225 26.0615C141.225 22.9573 141.294 21.7662 141.57 20.8832C141.984 19.4254 143.056 18.5792 144.573 18.5792C146.091 18.5792 147.162 19.4254 147.576 20.8832C147.852 21.7662 147.921 22.9573 147.921 26.0615C147.921 29.1657 147.852 30.3568 147.576 31.2398Z" fill="white"/>
<path d="M157.307 13.4007C157.307 13.1708 157.445 13.019 157.652 13.019H162.757C162.996 13.019 163.24 13.0972 163.346 13.4007L168.763 27.0225H168.901L174.181 13.4007C174.286 13.0926 174.525 13.019 174.769 13.019H179.805C180.012 13.019 180.15 13.1708 180.15 13.4007V38.7265C180.15 38.9564 180.012 39.1082 179.805 39.1082H175.008C174.801 39.1082 174.663 38.9564 174.663 38.7265V25.2979H174.493L170.731 35.0428C170.561 35.4245 170.285 35.5441 170.078 35.5441H167.388C167.181 35.5441 166.937 35.4291 166.73 35.0428L162.969 25.2979H162.798V38.7265C162.798 38.9564 162.66 39.1082 162.454 39.1082H157.657C157.45 39.1082 157.312 38.9564 157.312 38.7265V13.4007H157.307Z" fill="white"/>
<path d="M183.944 13.4007C183.944 13.1708 184.082 13.019 184.289 13.019H189.669C189.876 13.019 190.014 13.1708 190.014 13.4007V38.7265C190.014 38.9564 189.876 39.1082 189.669 39.1082H184.289C184.082 39.1082 183.944 38.9564 183.944 38.7265V13.4007Z" fill="white"/>
<path d="M193.261 26.0614C193.261 22.1846 193.431 20.7682 193.951 19.0022C195.193 14.7437 198.228 12.5547 202.472 12.5547C206.717 12.5547 209.578 14.7437 210.888 18.501C210.994 18.7677 210.957 18.9241 210.714 19.039L206.124 21.2649C205.885 21.3798 205.742 21.3017 205.641 21.0349C204.988 19.4989 204.156 18.5792 202.569 18.5792C201.084 18.5792 200.155 19.3839 199.741 20.8418C199.502 21.6466 199.396 22.4514 199.396 26.0614C199.396 29.6715 199.502 30.4763 199.741 31.2811C200.155 32.7389 201.088 33.5437 202.569 33.5437C204.156 33.5437 204.983 32.624 205.641 31.088C205.747 30.8212 205.885 30.743 206.124 30.858L210.714 33.0838C210.957 33.1988 210.99 33.3506 210.888 33.6219C209.578 37.3837 206.611 39.5682 202.472 39.5682C198.334 39.5682 195.193 37.3791 193.951 33.1206C193.431 31.3547 193.261 29.9382 193.261 26.0614Z" fill="white"/>
<path d="M220.173 13.4007C220.242 13.1708 220.38 13.019 220.624 13.019H226.248C226.488 13.019 226.63 13.1708 226.699 13.4007L234.632 38.7265C234.701 38.9564 234.595 39.1082 234.393 39.1082H228.7C228.46 39.1082 228.318 38.9564 228.253 38.7265L227.15 34.6979H219.525L218.421 38.7265C218.352 38.9564 218.214 39.1082 217.971 39.1082H212.314C212.107 39.1082 212.001 38.9564 212.075 38.7265L220.183 13.4007H220.173ZM225.623 29.0919L223.448 20.9566H223.342L221.066 29.0919H225.618H225.623Z" fill="white"/>
<path d="M52.1415 0.142564C52.1415 0.0551859 52.2105 0 52.3162 0H55.6182C55.724 0 55.7929 0.0551859 55.7929 0.142564V7.01321C55.7929 7.07299 55.8297 7.10059 55.8987 7.10059H60.6401C60.7459 7.10059 60.8149 7.16037 60.8149 7.24315V9.62994C60.8149 9.71732 60.7459 9.7725 60.6401 9.7725H52.3208C52.2151 9.7725 52.1461 9.71272 52.1461 9.62994V0.142564H52.1415Z" fill="white"/>
<path d="M65.3262 0.142564C65.363 0.0551859 65.432 0 65.5516 0H69.0973C69.2169 0 69.2904 0.0551859 69.3226 0.142564L73.319 9.62994C73.3558 9.71732 73.3006 9.7725 73.1994 9.7725H69.6721C69.5526 9.7725 69.479 9.71272 69.4468 9.62994L69.0145 8.35147H65.5424L65.1101 9.62994C65.0733 9.71732 65.0043 9.7725 64.8848 9.7725H61.3575C61.2517 9.7725 61.2011 9.71272 61.2379 9.62994L65.3262 0.142564ZM68.1913 5.89569L67.3221 3.29276H67.2715L66.3702 5.89569H68.1959H68.1913Z" fill="white"/>
</g>
<defs>
<clipPath id="clip0_22_24">
<rect width="235" height="40.0098" fill="white"/>
</clipPath>
</defs>
</svg>
