<svg width="46" height="46" viewBox="0 0 46 46" fill="none" xmlns="http://www.w3.org/2000/svg">
<path d="M22.9614 31.236C21.6331 31.2353 20.3164 30.9155 19.1527 30.3103C15.6085 28.466 13.8756 24.0428 15.2089 20.2413C16.3445 17.0026 19.5739 14.7415 23.0627 14.7415C23.5615 14.7415 24.0618 14.7882 24.5484 14.8802C28.3779 15.6025 31.2658 19.0935 31.2658 22.9999C31.2658 24.6257 30.7584 26.2716 29.8362 27.6358C28.3124 29.8898 25.7422 31.236 22.9614 31.236ZM23.0627 16.8977C20.4738 16.8977 18.081 18.5659 17.2437 20.955C16.2576 23.7675 17.5334 27.0371 20.1482 28.397C21.0056 28.8433 21.9781 29.0791 22.9614 29.0798C25.0263 29.0798 26.9281 28.0886 28.0508 26.429C28.7336 25.417 29.1095 24.1995 29.1095 22.9999C29.1095 20.112 26.977 17.5331 24.1487 16.9983C23.7929 16.9322 23.4278 16.8977 23.0627 16.8977Z" fill="black"/>
<path d="M35.7059 15.4381C35.4299 15.4381 35.1539 15.3332 34.9433 15.1226C34.5221 14.7014 34.5221 14.0193 34.9433 13.5981L40.9248 7.61667C41.346 7.19548 42.0281 7.19548 42.4492 7.61667C42.8704 8.03786 42.8704 8.71995 42.4492 9.14114L36.4678 15.1226C36.2572 15.3332 35.9819 15.4381 35.7059 15.4381Z" fill="black"/>
<path d="M31.64 11.3719C31.364 11.3719 31.088 11.267 30.8774 11.0564C30.4562 10.6352 30.4562 9.95314 30.8774 9.53195L36.8589 3.55051C37.28 3.12932 37.9621 3.12932 38.3833 3.55051C38.8045 3.9717 38.8045 4.65379 38.3833 5.07498L32.4019 11.0564C32.192 11.267 31.916 11.3719 31.64 11.3719Z" fill="black"/>
<path d="M22.9999 24.0782C22.7239 24.0782 22.4479 23.9733 22.2373 23.7627C21.8161 23.3415 21.8161 22.6594 22.2373 22.2382L30.8774 13.5981C31.2986 13.1769 31.9807 13.1769 32.4018 13.5981C32.823 14.0193 32.823 14.7014 32.4018 15.1226L23.7625 23.7627C23.5519 23.9733 23.2759 24.0782 22.9999 24.0782Z" fill="black"/>
<path d="M23.051 39.877C17.227 39.8777 11.5948 36.7993 8.48553 31.6157C4.62009 25.1728 5.66946 16.56 10.9803 11.1356C16.6203 5.37701 25.903 4.49582 32.573 9.08432C33.0639 9.42142 33.1875 10.0927 32.8504 10.5836C32.5133 11.0745 31.842 11.1974 31.3511 10.8604C25.5321 6.85763 17.4368 7.62454 12.5213 12.6443C7.88537 17.3787 6.96609 24.8911 10.3349 30.5067C13.6735 36.0712 20.3363 38.8585 26.5398 37.2873C33.1236 35.6177 37.8249 29.5241 37.7192 22.7995C37.674 19.8958 36.7576 17.0014 35.1397 14.6496C34.8018 14.1587 34.9262 13.4874 35.4171 13.1503C35.9087 12.8125 36.5793 12.9368 36.9164 13.427C38.7722 16.1252 39.823 19.4415 39.8755 22.7657C39.9962 30.4779 34.6107 37.4649 27.0695 39.3775C25.7391 39.7146 24.3893 39.877 23.051 39.877Z" fill="black"/>
<path d="M35.7061 15.438H31.6401C31.0443 15.438 30.562 14.955 30.562 14.3599C30.562 13.7647 31.0443 13.2817 31.6401 13.2817H35.7061C36.302 13.2817 36.7842 13.7647 36.7842 14.3599C36.7842 14.955 36.3012 15.438 35.7061 15.438Z" fill="black"/>
<path d="M31.6401 15.438C31.0443 15.438 30.562 14.955 30.562 14.3599V10.2939C30.562 9.69882 31.0443 9.21582 31.6401 9.21582C32.236 9.21582 32.7183 9.69882 32.7183 10.2939V14.3599C32.7183 14.9558 32.236 15.438 31.6401 15.438Z" fill="black"/>
<path d="M41.6876 9.45654H37.6216C37.0257 9.45654 36.5435 8.97354 36.5435 8.37842C36.5435 7.78329 37.0257 7.30029 37.6216 7.30029H41.6876C42.2834 7.30029 42.7657 7.78329 42.7657 8.37842C42.7657 8.97354 42.2834 9.45654 41.6876 9.45654Z" fill="black"/>
<path d="M37.6216 9.45659C37.0257 9.45659 36.5435 8.97359 36.5435 8.37847V4.3125C36.5435 3.71737 37.0257 3.23438 37.6216 3.23438C38.2174 3.23438 38.6997 3.71737 38.6997 4.3125V8.37847C38.6997 8.97359 38.2174 9.45659 37.6216 9.45659Z" fill="black"/>
<path d="M23 11.1406C22.4042 11.1406 21.9219 10.6576 21.9219 10.0625V4.3125C21.9219 3.71737 22.4042 3.23438 23 3.23438C23.5958 3.23438 24.0781 3.71737 24.0781 4.3125V10.0625C24.0781 10.6576 23.5958 11.1406 23 11.1406Z" fill="black"/>
<path d="M41.6875 24.0781H35.9375C35.3417 24.0781 34.8594 23.5951 34.8594 23C34.8594 22.4049 35.3417 21.9219 35.9375 21.9219H41.6875C42.2833 21.9219 42.7656 22.4049 42.7656 23C42.7656 23.5951 42.2833 24.0781 41.6875 24.0781Z" fill="black"/>
<path d="M23 42.7656C22.4042 42.7656 21.9219 42.2826 21.9219 41.6875V35.9375C21.9219 35.3424 22.4042 34.8594 23 34.8594C23.5958 34.8594 24.0781 35.3424 24.0781 35.9375V41.6875C24.0781 42.2826 23.5958 42.7656 23 42.7656Z" fill="black"/>
<path d="M10.0625 24.0781H4.3125C3.71666 24.0781 3.23438 23.5951 3.23438 23C3.23438 22.4049 3.71666 21.9219 4.3125 21.9219H10.0625C10.6583 21.9219 11.1406 22.4049 11.1406 23C11.1406 23.5951 10.6583 24.0781 10.0625 24.0781Z" fill="black"/>
</svg>
