<svg xmlns="http://www.w3.org/2000/svg" viewBox="0 0 80.39 53.78"><title>Obi</title><g id="aee93aeb-f40d-437b-9641-10bd98605748" data-name="Capa 2"><g id="bc309589-f9f6-495b-9886-2d85f90302a9" data-name="Capa 1"><path d="M8.19,50c0,.61-.28,3.75-3.67,3.75s-3.87-3-3.87-6.31c0-3.94,1.16-6.26,4-6.26C7.89,41.21,8.14,44,8.19,45H6c0-.42-.07-1.9-1.41-1.9s-1.71,1.68-1.71,4.47c0,2.29.23,4.44,1.65,4.44S6,50.49,6,50Z" transform="translate(-0.65)" fill="#1CA3FD"/><path d="M17.23,47.39c0,4.45-1.21,6.39-4,6.39-2.62,0-3.9-1.91-3.9-6.41s1.49-6.16,4-6.16S17.23,43.17,17.23,47.39Zm-5.69,0c0,2.88.44,4.6,1.72,4.6S15,50.36,15,47.35c0-2.83-.41-4.3-1.74-4.3S11.54,44.63,11.54,47.35Z" transform="translate(-0.65)" fill="#1CA3FD"/><path d="M18.94,53.57V41.4h2.48c2.53,6.73,3,8,3.16,8.61h0c-.11-1.47-.11-3.26-.11-5.25V41.4h2V53.57H24.06c-2.6-7.17-3.07-8.46-3.23-9h0c.09,1.5.09,3.29.09,5.47v3.55Z" transform="translate(-0.65)" fill="#1CA3FD"/><path d="M30,50.16c.11,1,.51,1.9,1.63,1.9s1.47-.67,1.47-1.58-.49-1.58-2-2.31c-2.09-1-2.91-1.87-2.91-3.68a3.13,3.13,0,0,1,3.46-3.28c2.75,0,3.43,1.85,3.46,3.44H33c-.07-.7-.25-1.72-1.35-1.72-.87,0-1.26.55-1.26,1.38s.4,1.29,1.83,1.95c2.19,1,3.17,2,3.17,4s-1.19,3.49-3.77,3.49c-2.8,0-3.66-1.79-3.73-3.62Z" transform="translate(-0.65)" fill="#1CA3FD"/><path d="M38.92,41.4v8.37c0,1,.25,2.19,1.6,2.19s1.57-1,1.57-2.17V41.4h2.19v8.42c0,2.19-.85,4-3.8,4s-3.75-1.67-3.75-4V41.4Z" transform="translate(-0.65)" fill="#1CA3FD"/><path d="M46.21,41.4h2.18V51.71h4.18l-.21,1.86H46.21Z" transform="translate(-0.65)" fill="#1CA3FD"/><path d="M53.86,43.31H51.25V41.4h7.4v1.91h-2.6V53.57H53.86Z" transform="translate(-0.65)" fill="#1CA3FD"/><path d="M62,41.4V53.57H59.85V41.4Z" transform="translate(-0.65)" fill="#1CA3FD"/><path d="M64.19,53.57V41.4h2.49c2.52,6.73,3,8,3.15,8.61h0c-.11-1.47-.11-3.26-.11-5.25V41.4h2V53.57H69.31c-2.6-7.17-3.07-8.46-3.22-9h0c.09,1.5.09,3.29.09,5.47v3.55Z" transform="translate(-0.65)" fill="#1CA3FD"/><path d="M81.05,53.57H79.38a8.56,8.56,0,0,1-.1-1,2.5,2.5,0,0,1-2.43,1.24c-2.54,0-3.47-2.26-3.47-6.22,0-4.44,1.51-6.35,4.13-6.35A3.32,3.32,0,0,1,81,44.75H78.87c0-.49-.14-1.7-1.43-1.7s-1.8,1.87-1.8,4.51c0,2.84.34,4.39,1.73,4.39,1.16,0,1.51-.88,1.51-2.68v-.68H77.23V46.73h3.82Z" transform="translate(-0.65)" fill="#1CA3FD"/><ellipse cx="18.95" cy="18.3" rx="14.62" ry="14.58" fill="#67D644"/><ellipse cx="63.11" cy="18.47" rx="14.62" ry="14.58" fill="#996DF5"/><ellipse cx="41.84" cy="14.58" rx="14.62" ry="14.58" fill="#1CA3FD"/><path d="M38.31,7.14h4.62c2.49,0,3.87,1.27,3.87,3.55a2.71,2.71,0,0,1-1.65,2.86,3.22,3.22,0,0,1,2,3.33c0,2.74-1.67,4.11-4.36,4.11H38.31Zm3.95,5.4c1.18,0,1.45-.47,1.45-1.54s-.44-1.53-1.42-1.53h-.88v3.07Zm-.85,6.15h1c1,0,1.5-.47,1.5-1.92s-.42-2-1.69-2h-.82Z" transform="translate(-0.65)" fill="#fff"/><path d="M24.14,17.7c0,5.08-1.39,7.28-4.84,7.28-3.22,0-4.65-2.24-4.65-7.35,0-4.9,1.59-7,4.78-7S24.14,12.88,24.14,17.7ZM18,17.63c0,3.42.31,4.85,1.41,4.85s1.42-1.33,1.42-4.85c0-3.28-.28-4.5-1.42-4.5S18,14.41,18,17.63Z" transform="translate(-0.65)" fill="#fff"/><path d="M65.54,11V24.88H62.35V11Z" transform="translate(-0.65)" fill="#fff"/></g></g></svg>