<svg width="36" height="36" viewBox="0 0 36 36" fill="none" xmlns="http://www.w3.org/2000/svg">
<g clip-path="url(#clip0_13_960)">
<path d="M34.1573 14.2212L31.6305 13.7925C31.3673 12.9427 31.0288 12.123 30.6152 11.3409L32.1042 9.25776C32.736 8.37036 32.6382 7.15959 31.8636 6.39252L29.6225 4.15146C29.2014 3.73032 28.6449 3.49719 28.0508 3.49719C27.5845 3.49719 27.1408 3.64008 26.7648 3.91081L24.6742 5.39983C23.862 4.97118 23.0122 4.61772 22.1323 4.35451L21.7112 1.85776C21.5307 0.782358 20.6057 0.000244141 19.5152 0.000244141H16.3492C15.2587 0.000244141 14.3337 0.782358 14.1532 1.85776L13.7171 4.41467C12.8748 4.67788 12.0551 5.02382 11.273 5.44496L9.20487 3.95593C8.82886 3.6852 8.37764 3.54232 7.91138 3.54232C7.31727 3.54232 6.75325 3.77544 6.33963 4.19658L4.09105 6.43764C3.32398 7.20471 3.2187 8.41548 3.8504 9.30288L5.35447 11.4161C4.94085 12.2057 4.60996 13.0254 4.35427 13.8752L1.85752 14.2964C0.782113 14.4769 0 15.4019 0 16.4923V19.6584C0 20.7488 0.782113 21.6738 1.85752 21.8543L4.41443 22.2905C4.67764 23.1327 5.02357 23.9525 5.44471 24.7346L3.96321 26.7951C3.3315 27.6825 3.42927 28.8933 4.20386 29.6604L6.44491 31.9014C6.86605 32.3226 7.42256 32.5557 8.01666 32.5557C8.48292 32.5557 8.92662 32.4128 9.30264 32.1421L11.4158 30.638C12.1754 31.0366 12.9726 31.36 13.7923 31.6157L14.2134 34.1425C14.3939 35.2179 15.3189 36 16.4093 36H19.5829C20.6734 36 21.5984 35.2179 21.7788 34.1425L22.2075 31.6157C23.0573 31.3525 23.877 31.014 24.6591 30.6004L26.7423 32.0895C27.1183 32.3602 27.5695 32.5031 28.0358 32.5031C28.6299 32.5031 29.1864 32.2699 29.6075 31.8488L31.8486 29.6077C32.6156 28.8407 32.7209 27.6299 32.0892 26.7425L30.6002 24.6519C31.0138 23.8622 31.3597 23.0425 31.6154 22.2002L34.1423 21.7791C35.2177 21.5986 35.9998 20.6736 35.9998 19.5832V16.4171C36.0148 15.3267 35.2327 14.4017 34.1573 14.2212ZM33.9843 19.5832C33.9843 19.6809 33.9166 19.7636 33.8189 19.7787L30.6603 20.3051C30.2618 20.3728 29.9459 20.6661 29.8482 21.0496C29.5624 22.1551 29.1262 23.2155 28.5396 24.2006C28.3366 24.5466 28.3516 24.9752 28.5847 25.3061L30.4423 27.9232C30.4949 27.9984 30.4874 28.1112 30.4197 28.1789L28.1786 30.4199C28.126 30.4726 28.0734 30.4801 28.0358 30.4801C27.9906 30.4801 27.953 30.4651 27.9229 30.4425L25.3134 28.585C24.99 28.3519 24.5538 28.3368 24.2079 28.5399C23.2227 29.1264 22.1624 29.5626 21.0569 29.8484C20.6658 29.9462 20.3725 30.2695 20.3124 30.6606L19.7784 33.8191C19.7634 33.9169 19.6807 33.9846 19.5829 33.9846H16.4169C16.3191 33.9846 16.2364 33.9169 16.2213 33.8191L15.6949 30.6606C15.6272 30.262 15.3339 29.9462 14.9504 29.8484C13.875 29.5701 12.8372 29.1415 11.8671 28.585C11.7091 28.4947 11.5287 28.4496 11.3557 28.4496C11.1526 28.4496 10.9421 28.5098 10.7691 28.6376L8.13699 30.5102C8.09938 30.5327 8.06178 30.5478 8.02418 30.5478C7.9941 30.5478 7.93394 30.5403 7.8813 30.4876L5.64024 28.2466C5.57256 28.1789 5.56504 28.0736 5.61768 27.9909L7.46768 25.3964C7.70081 25.0655 7.71585 24.6293 7.5128 24.2834C6.92622 23.3057 6.475 22.2454 6.18922 21.1399C6.08394 20.7563 5.76809 20.463 5.37703 20.3954L2.19593 19.8539C2.09817 19.8388 2.03049 19.7561 2.03049 19.6584V16.4923C2.03049 16.3945 2.09817 16.3118 2.19593 16.2968L5.33191 15.7704C5.73048 15.7027 6.05386 15.4094 6.15162 15.0183C6.42987 13.9128 6.85853 12.845 7.4376 11.8598C7.64065 11.5139 7.61808 11.0852 7.38495 10.7618L5.51239 8.12971C5.45975 8.05451 5.46727 7.9417 5.53496 7.87402L7.77601 5.63296C7.82865 5.58032 7.8813 5.5728 7.9189 5.5728C7.96402 5.5728 8.00162 5.58784 8.0317 5.6104L10.6262 7.4604C10.9571 7.69353 11.3933 7.70857 11.7392 7.50552C12.7169 6.91894 13.7772 6.46772 14.8827 6.18195C15.2662 6.07666 15.5595 5.76081 15.6272 5.36975L16.1687 2.18866C16.1837 2.09089 16.2665 2.02321 16.3642 2.02321H19.5303C19.628 2.02321 19.7108 2.09089 19.7258 2.18866L20.2522 5.32463C20.3199 5.72321 20.6132 6.04658 21.0043 6.14435C22.1398 6.43012 23.2227 6.87382 24.2305 7.46792C24.5764 7.67097 25.0051 7.65593 25.336 7.4228L27.9305 5.55776C27.9681 5.5352 28.0057 5.52016 28.0433 5.52016C28.0734 5.52016 28.1335 5.52768 28.1862 5.58032L30.4272 7.82138C30.4949 7.88906 30.5024 7.99434 30.4498 8.07707L28.5923 10.6866C28.3591 11.01 28.3441 11.4462 28.5471 11.7921C29.1337 12.7773 29.5699 13.8376 29.8557 14.9431C29.9534 15.3342 30.2768 15.6275 30.6679 15.6876L33.8264 16.2216C33.9242 16.2366 33.9918 16.3193 33.9918 16.4171V19.5832H33.9843Z" fill="black"/>
<path d="M18.0038 10.2278C13.7173 10.2278 10.2354 13.7097 10.2354 17.9963C10.2354 22.2829 13.7173 25.7648 18.0038 25.7648C22.2904 25.7648 25.7723 22.2829 25.7723 17.9963C25.7723 13.7097 22.2904 10.2278 18.0038 10.2278ZM18.0038 23.7343C14.8378 23.7343 12.2658 21.1623 12.2658 17.9963C12.2658 14.8302 14.8378 12.2583 18.0038 12.2583C21.1699 12.2583 23.7418 14.8302 23.7418 17.9963C23.7418 21.1623 21.1699 23.7343 18.0038 23.7343Z" fill="black"/>
</g>
<defs>
<clipPath id="clip0_13_960">
<rect width="36" height="36" fill="white"/>
</clipPath>
</defs>
</svg>
