<svg width="981" height="762" viewBox="0 0 981 762" fill="none" xmlns="http://www.w3.org/2000/svg">
<path d="M26 0V761.5" stroke="black" stroke-opacity="0.1"/>
<path d="M84 0V761.5" stroke="black" stroke-opacity="0.1"/>
<path d="M142 0V761.5" stroke="black" stroke-opacity="0.1"/>
<path d="M200 0V761.5" stroke="black" stroke-opacity="0.1"/>
<path d="M258 0V761.5" stroke="black" stroke-opacity="0.1"/>
<path d="M316 0V761.5" stroke="black" stroke-opacity="0.1"/>
<path d="M374 0V761.5" stroke="black" stroke-opacity="0.1"/>
<path d="M432 0V761.5" stroke="black" stroke-opacity="0.1"/>
<path d="M490 0V761.5" stroke="black" stroke-opacity="0.1"/>
<path d="M548 0V761.5" stroke="black" stroke-opacity="0.1"/>
<path d="M606 0V761.5" stroke="black" stroke-opacity="0.1"/>
<path d="M664 0V761.5" stroke="black" stroke-opacity="0.1"/>
<path d="M722 0V761.5" stroke="black" stroke-opacity="0.1"/>
<path d="M780 0V761.5" stroke="black" stroke-opacity="0.1"/>
<path d="M838 0V761.5" stroke="black" stroke-opacity="0.1"/>
<path d="M896 0V761.5" stroke="black" stroke-opacity="0.1"/>
<path d="M954 0V761.5" stroke="black" stroke-opacity="0.1"/>
<path d="M0 35H980.5" stroke="black" stroke-opacity="0.1"/>
<path d="M0 85H980.5" stroke="black" stroke-opacity="0.1"/>
<path d="M0 135H980.5" stroke="black" stroke-opacity="0.1"/>
<path d="M0 185H980.5" stroke="black" stroke-opacity="0.1"/>
<path d="M0 235H980.5" stroke="black" stroke-opacity="0.1"/>
<path d="M0 285H980.5" stroke="black" stroke-opacity="0.1"/>
<path d="M0 335H980.5" stroke="black" stroke-opacity="0.1"/>
<path d="M0 385H980.5" stroke="black" stroke-opacity="0.1"/>
<path d="M0 435H980.5" stroke="black" stroke-opacity="0.1"/>
<path d="M0 485H980.5" stroke="black" stroke-opacity="0.1"/>
<path d="M0 535H980.5" stroke="black" stroke-opacity="0.1"/>
<path d="M0 585H980.5" stroke="black" stroke-opacity="0.1"/>
<path d="M0 635H980.5" stroke="black" stroke-opacity="0.1"/>
<path d="M0 685H980.5" stroke="black" stroke-opacity="0.1"/>
<path d="M0 735H980.5" stroke="black" stroke-opacity="0.1"/>
</svg>
