<svg width="109" height="109" viewBox="0 0 109 109" fill="none" xmlns="http://www.w3.org/2000/svg">
<g clip-path="url(#clip0_5_199)">
<path d="M54.5 109C24.4051 109 0 84.5949 0 54.5C0 24.4051 24.4051 0 54.5 0C84.5949 0 109 24.4051 109 54.5C109 84.5949 84.5949 109 54.5 109Z" fill="#39AF13"/>
<path d="M80.4542 27.5076C73.6962 20.7387 64.6928 17.0109 55.1117 17C35.3718 17 19.2943 33.0666 19.2943 52.8174C19.2943 59.1285 20.9402 65.2979 24.0794 70.7261L19 89.2888L37.9878 84.3075C43.2198 87.1633 49.1058 88.6675 55.1008 88.6675H55.1117C74.8516 88.6675 90.9182 72.6009 90.9291 52.8501C90.94 43.2799 87.2231 34.2765 80.4542 27.5076ZM55.1226 82.618H55.1117C49.7707 82.618 44.5278 81.1792 39.9607 78.4651L38.8707 77.822L27.6001 80.7759L30.6085 69.7887L29.9 68.666C26.9243 63.9245 25.3438 58.4527 25.3438 52.8174C25.3547 36.402 38.7072 23.0495 55.1335 23.0495C63.0905 23.0495 70.557 26.156 76.1814 31.7804C81.8058 37.4048 84.9014 44.8931 84.8905 52.8392C84.8905 69.2655 71.5271 82.618 55.1226 82.618ZM71.4508 60.3166C70.557 59.8697 66.1534 57.7006 65.3359 57.4063C64.5184 57.112 63.9189 56.9594 63.3194 57.8532C62.7199 58.747 61.0086 60.7635 60.4854 61.363C59.9622 61.9625 59.439 62.0388 58.5452 61.5919C57.6514 61.145 54.7629 60.1967 51.3512 57.1447C48.6916 54.7685 46.8931 51.8364 46.3699 50.9426C45.8467 50.0488 46.3154 49.5583 46.7623 49.1114C47.1656 48.7081 47.6561 48.065 48.103 47.5418C48.5499 47.0186 48.7025 46.648 48.9968 46.0485C49.2911 45.449 49.1494 44.9258 48.9205 44.4789C48.6916 44.032 46.904 39.6284 46.1628 37.8299C45.4325 36.0859 44.7022 36.3257 44.1463 36.293C43.6231 36.2712 43.0236 36.2603 42.435 36.2603C41.8355 36.2603 40.8654 36.4892 40.0479 37.383C39.2304 38.2768 36.9196 40.4459 36.9196 44.8495C36.9196 49.2531 40.1242 53.515 40.5711 54.1036C41.018 54.7031 46.8822 63.7392 55.8638 67.6196C58.0002 68.5461 59.6679 69.0911 60.965 69.5053C63.1123 70.192 65.0634 70.0939 66.6003 69.865C68.3225 69.6034 71.8977 67.6959 72.6389 65.614C73.3801 63.5212 73.3801 61.7336 73.1621 61.363C72.9441 60.9924 72.3446 60.7744 71.4508 60.3166Z" fill="white"/>
</g>
<defs>
<clipPath id="clip0_5_199">
<rect width="109" height="109" fill="white"/>
</clipPath>
</defs>
</svg>
